<?xml version="1.0" encoding="UTF-8"?>
<svg version="1.1" xmlns="http://www.w3.org/2000/svg" width="1200" height="653">
<path d="M0 0 C0.54978516 0.44537109 1.09957031 0.89074219 1.66601562 1.34960938 C15.38199603 12.56602241 28.18501424 24.94257069 39 39 C40.15822266 40.43279297 40.15822266 40.43279297 41.33984375 41.89453125 C71.10800989 79.28109062 88.93261408 125.6332769 94 173 C94.11214844 174.0415625 94.22429688 175.083125 94.33984375 176.15625 C100.13214641 241.53785809 80.60337725 309.753016 38.56298828 360.50415039 C36.41298348 363.03767576 34.21300323 365.52116019 32 368 C30.89978516 369.26457031 30.89978516 369.26457031 29.77734375 370.5546875 C20.33075474 381.28710986 10.29059945 391.21489874 -1 400 C-2.43859375 401.16402344 -2.43859375 401.16402344 -3.90625 402.3515625 C-41.2691699 432.07206697 -88.47550345 450.6473837 -136 455 C-137.17949219 455.11085938 -138.35898437 455.22171875 -139.57421875 455.3359375 C-205.46442245 460.6071538 -271.75553309 440.98850935 -323 399 C-323.60602051 398.50822266 -324.21204102 398.01644531 -324.83642578 397.50976562 C-338.15768173 386.63793702 -350.48664714 374.62624505 -361 361 C-361.78503906 360.0203125 -362.57007813 359.040625 -363.37890625 358.03125 C-405.82941125 304.702437 -423.54530923 236.38873891 -416.359375 169.04199219 C-410.27262334 117.51962422 -388.80889772 66.91103948 -353 29 C-351.89072135 27.71272082 -350.78643909 26.42111716 -349.6875 25.125 C-341.569963 15.84513668 -332.72030706 7.57513584 -323 0 C-321.99324219 -0.80050781 -320.98648438 -1.60101563 -319.94921875 -2.42578125 C-247.80567935 -59.38355094 -148.43882924 -72.53094248 0 0 Z " fill="#FCFDFD" transform="translate(422,61)"/>
<path d="M0 0 C2.37770028 0.02385323 4.75428794 0.02049056 7.13208008 0.01391602 C16.11322249 0.03041202 24.70209907 0.63018519 33.5480957 2.33618164 C34.8268457 2.57079102 36.1055957 2.80540039 37.4230957 3.04711914 C69.5341001 9.87070757 97.85343863 24.6000463 121.5480957 47.33618164 C122.48911133 48.2140332 123.43012695 49.09188477 124.3996582 49.99633789 C145.43403815 69.97934131 161.22872649 97.29104757 168.5480957 125.33618164 C168.82137695 126.31458008 169.0946582 127.29297852 169.3762207 128.30102539 C173.12687677 142.29244336 173.95736545 156.00313996 173.9230957 170.39868164 C173.92227997 171.69051865 173.92227997 171.69051865 173.92144775 173.00845337 C173.88320779 186.18915816 173.0942197 198.58100458 169.5480957 211.33618164 C169.23461182 212.5557959 169.23461182 212.5557959 168.91479492 213.80004883 C161.45393748 242.73811613 147.02947408 267.71508663 126.5480957 289.33618164 C125.66766602 290.28106445 124.78723633 291.22594727 123.88012695 292.19946289 C96.92192195 320.54702737 55.83367067 340.21875457 16.57006836 341.4621582 C12.70485614 341.54091551 8.8403135 341.56706103 4.97436523 341.57641602 C2.58060992 341.58605077 0.18774188 341.61712915 -2.20581055 341.64868164 C-16.63269471 341.74810703 -30.69432362 339.84545794 -44.5769043 335.83618164 C-45.43034424 335.589729 -46.28378418 335.34327637 -47.16308594 335.08935547 C-63.62431351 330.05759753 -79.47315542 322.37776352 -93.4519043 312.33618164 C-94.47026367 311.61946289 -95.48862305 310.90274414 -96.5378418 310.16430664 C-104.02505959 304.73655493 -110.76927212 298.70148212 -117.4519043 292.33618164 C-118.20987305 291.64266602 -118.9678418 290.94915039 -119.7487793 290.23461914 C-140.18081011 270.92113016 -153.47274699 244.88359626 -161.7644043 218.33618164 C-161.99490479 217.61503174 -162.22540527 216.89388184 -162.46289062 216.15087891 C-166.87943571 201.18847405 -168.03806698 185.73031744 -167.9519043 170.21118164 C-167.95047424 169.36955475 -167.94904419 168.52792786 -167.9475708 167.66079712 C-167.8867252 153.10099428 -166.43700838 139.3951843 -162.4519043 125.33618164 C-162.22728516 124.52004395 -162.00266602 123.70390625 -161.77124023 122.86303711 C-149.82249218 80.57281746 -120.1288143 43.89269241 -82.24707031 21.94360352 C-56.66421304 7.74800738 -29.29229174 -0.31314022 0 0 Z " fill="#EC2227" transform="translate(257.451904296875,89.663818359375)"/>
<path d="M0 0 C0.72210663 0.00027191 1.44421326 0.00054382 2.1882019 0.00082397 C46.02772495 0.07636247 46.02772495 0.07636247 58.25 6.1875 C58.25 25.6575 58.25 45.1275 58.25 65.1875 C54.95 64.1975 51.65 63.2075 48.25 62.1875 C16.13776106 53.68645953 -18.87546638 49.98235724 -49.0625 67 C-70.01346607 79.3528619 -82.59845795 97.72835482 -88.75 120.96484375 C-94.55562286 146.67147191 -93.15113843 175.54556357 -80.75 199.1875 C-80.30914063 200.02796875 -79.86828125 200.8684375 -79.4140625 201.734375 C-69.24471281 219.82570429 -52.32638965 231.77675152 -32.61352539 237.42041016 C-4.50235203 244.86052145 24.07165787 243.64879392 51.79296875 235.17578125 C55.25 234.1875 55.25 234.1875 58.25 234.1875 C58.25 252.6675 58.25 271.1475 58.25 290.1875 C32.1447687 296.12050711 32.1447687 296.12050711 24.5 297 C23.49888184 297.11690186 22.49776367 297.23380371 21.46630859 297.35424805 C0.82998501 299.47697462 -21.2755645 299.66317673 -41.75 296.1875 C-42.67393555 296.03152344 -43.59787109 295.87554687 -44.54980469 295.71484375 C-75.18853693 290.33788067 -101.95267428 278.68648556 -124.75 257.1875 C-125.42675781 256.57519531 -126.10351562 255.96289062 -126.80078125 255.33203125 C-148.57138065 234.87028552 -161.23729482 202.56682207 -163.75 173.1875 C-163.81026367 172.49011719 -163.87052734 171.79273438 -163.93261719 171.07421875 C-167.17691591 131.31868515 -159.75534156 88.66554785 -133.75 57.1875 C-130.2151504 53.05627626 -126.51966979 49.10419279 -122.75 45.1875 C-121.89728516 44.24003906 -121.89728516 44.24003906 -121.02734375 43.2734375 C-91.30294823 11.19237635 -41.91404714 -0.05944233 0 0 Z " fill="#00A74F" transform="translate(881.75,20.8125)"/>
<path d="M0 0 C75.57 0 151.14 0 229 0 C229 19.14 229 38.28 229 58 C201.94 58 174.88 58 147 58 C147 137.2 147 216.4 147 298 C124.89 298 102.78 298 80 298 C80 218.8 80 139.6 80 58 C53.6 58 27.2 58 0 58 C0 38.86 0 19.72 0 0 Z " fill="#00A650" transform="translate(967,21)"/>
<path d="M0 0 C22.11 0 44.22 0 67 0 C67 98.34 67 196.68 67 298 C44.89 298 22.78 298 0 298 C0 199.66 0 101.32 0 0 Z " fill="#00A650" transform="translate(625,21)"/>
<path d="M0 0 C0.66 0 1.32 0 2 0 C2.28875 0.78375 2.5775 1.5675 2.875 2.375 C3.84912254 5.09671632 3.84912254 5.09671632 6 7 C6.61875 7.061875 7.2375 7.12375 7.875 7.1875 C11.39379483 8.53292155 12.26062805 11.75317235 14 15 C14.66 15.33 15.32 15.66 16 16 C16 16.66 16 17.32 16 18 C18.47266765 17.65555119 18.47266765 17.65555119 21 17 C21.33 16.34 21.66 15.68 22 15 C22.66 15 23.32 15 24 15 C23.01 14.34 22.02 13.68 21 13 C21 12.01 21 11.02 21 10 C22.98 10.33 24.96 10.66 27 11 C28.29243536 15.1196377 29.26252625 18.66831683 29 23 C29.61875 23.12375 30.2375 23.2475 30.875 23.375 C33 24 33 24 35 26 C37.19704511 26.67651207 37.19704511 26.67651207 39.625 27.125 C40.44226563 27.29257813 41.25953125 27.46015625 42.1015625 27.6328125 C42.72804687 27.75398438 43.35453125 27.87515625 44 28 C44.33 27.34 44.66 26.68 45 26 C45.99 26 46.98 26 48 26 C48 25.34 48 24.68 48 24 C47.34 24 46.68 24 46 24 C46 23.01 46 22.02 46 21 C46.66 21 47.32 21 48 21 C48 20.34 48 19.68 48 19 C51.875 20.875 51.875 20.875 53 22 C53.04080783 23.99958364 53.04254356 26.00045254 53 28 C54.485 28.495 54.485 28.495 56 29 C55.91621094 29.74765625 55.83242187 30.4953125 55.74609375 31.265625 C55.64425781 32.25046875 55.54242188 33.2353125 55.4375 34.25 C55.33308594 35.22453125 55.22867188 36.1990625 55.12109375 37.203125 C55.00862514 39.80078706 55.28156844 41.5375498 56 44 C56.29337157 49.18289765 55.5886423 53.13478296 54 58 C55.6396875 58.185625 55.6396875 58.185625 57.3125 58.375 C61 59 61 59 64 61 C71.74516654 64.53288299 78.94155641 64.21368741 87.28125 64.0078125 C88.5084375 64.00523437 89.735625 64.00265625 91 64 C91.33 64.33 91.66 64.66 92 65 C93.58899915 64.75819578 95.17778926 64.51495458 96.765625 64.265625 C107.66190813 62.97026267 107.66190813 62.97026267 112.29052734 65.00878906 C115.40099664 66.14669727 117.69749678 66.18453271 121 66.08984375 C122.134375 66.06986328 123.26875 66.04988281 124.4375 66.02929688 C126.8126038 65.96809628 129.1876102 65.90299159 131.5625 65.83398438 C132.696875 65.81529297 133.83125 65.79660156 135 65.77734375 C136.546875 65.73468384 136.546875 65.73468384 138.125 65.69116211 C141.46446349 66.04989354 143.22974439 67.15888579 146 69 C147.5778125 69.4640625 147.5778125 69.4640625 149.1875 69.9375 C152 71 152 71 153.1875 73.0625 C153.5896875 74.0215625 153.5896875 74.0215625 154 75 C154.99 75.33 155.98 75.66 157 76 C156.67 77.32 156.34 78.64 156 80 C152.62537285 79.45276317 150.91765 78.9451 148 77 C148.04125 78.258125 148.0825 79.51625 148.125 80.8125 C148.2390374 84.29064073 148.05925681 84.91111478 146 88 C145.61500109 89.65549531 145.27206865 91.3222433 145 93 C144.34 93 143.68 93 143 93 C143 94.65 143 96.3 143 98 C141.6078125 98.2165625 141.6078125 98.2165625 140.1875 98.4375 C136.99274889 98.92100111 136.99274889 98.92100111 134 100 C134 101.98 134 103.96 134 106 C133.01 106.495 133.01 106.495 132 107 C132 106.01 132 105.02 132 104 C131.38125 104.185625 130.7625 104.37125 130.125 104.5625 C128 105 128 105 126 104 C125.67 105.32 125.34 106.64 125 108 C124.67 107.01 124.34 106.02 124 105 C123.34 105 122.68 105 122 105 C121.67 106.65 121.34 108.3 121 110 C118.03 109.67 115.06 109.34 112 109 C112.33 109.99 112.66 110.98 113 112 C112.0409375 112.4021875 112.0409375 112.4021875 111.0625 112.8125 C108.66868314 113.88667752 108.66868314 113.88667752 108 117 C107.34 117 106.68 117 106 117 C106.185625 117.78375 106.37125 118.5675 106.5625 119.375 C107 122 107 122 106 124 C105.34 124 104.68 124 104 124 C104.309375 124.8971875 104.309375 124.8971875 104.625 125.8125 C105 128 105 128 103 131 C103.66 131 104.32 131 105 131 C107.5062762 136.69608228 109.85553236 142.0678308 110.5 148.3125 C110.665 149.529375 110.83 150.74625 111 152 C111.66 152.33 112.32 152.66 113 153 C112.67 150.03 112.34 147.06 112 144 C117.0022542 148.08078632 118.07934219 151.69280693 119 158 C122.12602751 156.86957793 125.12591304 155.68015234 128 154 C129.38894914 151.49192611 129.38894914 151.49192611 129 149 C128.34 148.34 127.68 147.68 127 147 C126.75 144 126.75 144 127 141 C129.18700941 138.81299059 130.07831434 138.6197515 133 138 C133.99 137.67 134.98 137.34 136 137 C135.67 133.37 135.34 129.74 135 126 C135.66 126 136.32 126 137 126 C137 126.99 137 127.98 137 129 C137.556875 128.67 138.11375 128.34 138.6875 128 C141.3145604 126.86397388 143.16834727 126.92548282 146 127 C146.66 126.67 147.32 126.34 148 126 C148.69676279 129.31062241 149.38084992 132.62373573 150.0625 135.9375 C150.26166016 136.88302734 150.46082031 137.82855469 150.66601562 138.80273438 C150.94155273 140.15141602 150.94155273 140.15141602 151.22265625 141.52734375 C151.39547119 142.35999756 151.56828613 143.19265137 151.74633789 144.05053711 C151.83004639 144.69385986 151.91375488 145.33718262 152 146 C151.67 146.33 151.34 146.66 151 147 C151.03804407 148.96073272 151.1554594 150.92019607 151.3125 152.875 C151.39113281 153.94492187 151.46976563 155.01484375 151.55078125 156.1171875 C151.82279106 159.18916094 151.82279106 159.18916094 154 162 C154.165 162.86625 154.33 163.7325 154.5 164.625 C154.665 165.40875 154.83 166.1925 155 167 C155.66 167.33 156.32 167.66 157 168 C157.48511112 171.0184692 157.84625805 173.96125583 158.125 177 C158.21136719 177.82628906 158.29773438 178.65257812 158.38671875 179.50390625 C158.8697442 184.40316441 159.05087507 189.16965129 158.83544922 194.08984375 C158.87432775 196.33283574 158.87432775 196.33283574 161 199 C161.21118164 201.57202148 161.21118164 201.57202148 161.16015625 204.62109375 C161.1437207 206.27141602 161.1437207 206.27141602 161.12695312 207.95507812 C161.10568359 209.10427734 161.08441406 210.25347656 161.0625 211.4375 C161.02801739 213.70696688 160.99788866 215.97650518 160.97265625 218.24609375 C160.95468994 219.25341553 160.93672363 220.2607373 160.91821289 221.29858398 C160.99145506 223.71776192 161.29980968 225.69496385 162 228 C160.68 228.33 159.36 228.66 158 229 C157.938125 228.38125 157.87625 227.7625 157.8125 227.125 C157.19124685 224.7498001 157.19124685 224.7498001 154.625 223.9375 C153.75875 223.628125 152.8925 223.31875 152 223 C150.1875 221.375 150.1875 221.375 149 220 C145.17924246 223.10454905 145.17924246 223.10454905 143.75 227.5625 C143.8325 228.366875 143.915 229.17125 144 230 C143.78859375 230.60714844 143.5771875 231.21429688 143.359375 231.83984375 C142.8500515 234.9013209 143.9776917 236.34405786 145.5 239 C148.07534247 243.49315068 148.07534247 243.49315068 147.65625 246.3125 C147.4396875 246.869375 147.223125 247.42625 147 248 C146.67 247.01 146.34 246.02 146 245 C145.34 245 144.68 245 144 245 C143.608125 244.13375 143.21625 243.2675 142.8125 242.375 C141.14107403 238.90363359 141.14107403 238.90363359 138.375 236.25 C134.97442999 232.43074119 135.10680375 227.91297267 135 223 C134.34 223 133.68 223 133 223 C133.09539062 222.31292969 133.19078125 221.62585938 133.2890625 220.91796875 C133.39992188 220.01691406 133.51078125 219.11585938 133.625 218.1875 C133.74101562 217.29417969 133.85703125 216.40085937 133.9765625 215.48046875 C134.23500743 212.74309609 134.23500743 212.74309609 132 210 C131.56395306 207.36091849 131.21259797 204.78029344 130.9375 202.125 C130.35314482 196.65977198 130.35314482 196.65977198 129.44140625 191.2421875 C129 189 129 189 129 185 C128.67 184.67 128.34 184.34 128 184 C127.67 184.99 127.34 185.98 127 187 C126.7834375 185.081875 126.7834375 185.081875 126.5625 183.125 C125.36514692 177.45991154 122.0407261 174.319879 117.99609375 170.359375 C115.84332513 167.81481092 115.33070553 166.27224418 115 163 C114.443125 163.639375 113.88625 164.27875 113.3125 164.9375 C110.75905222 167.21489937 109.36823292 167.73408687 106 168 C105.34 167.67 104.68 167.34 104 167 C104 167.66 104 168.32 104 169 C104.66 169 105.32 169 106 169 C105.67 170.32 105.34 171.64 105 173 C100.88067432 174.34204275 98.24864881 173.58408489 94.2578125 172.1484375 C90.52763819 170.2510824 88.15807572 167.54762807 86 164 C85.125 161.0625 85.125 161.0625 85 159 C84.01 159 83.02 159 82 159 C82 159.66 82 160.32 82 161 C80.5 162.625 80.5 162.625 79 164 C80.65 164.33 82.3 164.66 84 165 C84 166.98 84 168.96 84 171 C84.99 171 85.98 171 87 171 C90.44534638 179.03914156 90.05378978 184.79076283 87 193 C84.4375 195.75 84.4375 195.75 82 197 C81.34 197 80.68 197 80 197 C79.3125 195.4375 79.3125 195.4375 79 193 C79.76103639 191.37866161 80.52306614 189.75777204 81.29296875 188.140625 C82.77493113 183.65379966 83.14403132 177.28806263 81 173 C80.01 173 79.02 173 78 173 C78.515625 174.0725 79.03125 175.145 79.5625 176.25 C80.58584412 178.37855576 81.05045861 179.57580556 80.76953125 181.9375 C79.83290654 184.44784441 78.59591307 186.51069951 77.125 188.75 C76.35542969 189.94882812 76.35542969 189.94882812 75.5703125 191.171875 C75.05210937 191.77515625 74.53390625 192.3784375 74 193 C73.01 193 72.02 193 71 193 C71 192.34 71 191.68 71 191 C70.34 190.67 69.68 190.34 69 190 C69 191.32 69 192.64 69 194 C67.35 193.34 65.7 192.68 64 192 C63.62875 192.804375 63.62875 192.804375 63.25 193.625 C61.69347463 196.5823982 59.96564327 199.29724051 58 202 C57.34 202 56.68 202 56 202 C56.020625 201.2575 56.04125 200.515 56.0625 199.75 C56.00671312 197.29537721 55.6930096 195.33890739 55 193 C54.67 194.65 54.34 196.3 54 198 C53.34 198 52.68 198 52 198 C52 195.36 52 192.72 52 190 C51.34 190 50.68 190 50 190 C50 190.66 50 191.32 50 192 C49.01 192 48.02 192 47 192 C47.66 192.99 48.32 193.98 49 195 C49.32727273 200.34545455 49.32727273 200.34545455 48 203 C47.01 203 46.02 203 45 203 C44.67 202.34 44.34 201.68 44 201 C44 201.66 44 202.32 44 203 C43.34 203 42.68 203 42 203 C41.8453125 202.0409375 41.8453125 202.0409375 41.6875 201.0625 C41.460625 200.381875 41.23375 199.70125 41 199 C40.01 198.67 39.02 198.34 38 198 C38.33 196.35 38.66 194.7 39 193 C38.01 192.67 37.02 192.34 36 192 C36 190.68 36 189.36 36 188 C35.34 188 34.68 188 34 188 C34.495 193.445 34.495 193.445 35 199 C34.01 198.67 33.02 198.34 32 198 C32.33 198.66 32.66 199.32 33 200 C33.039992 201.99960012 33.04346799 204.00047242 33 206 C31.68 206 30.36 206 29 206 C27.88606907 202.65820721 28.24623003 201.35008877 29 198 C29 197.01 29 196.02 29 195 C28.34 195 27.68 195 27 195 C27.33 196.98 27.66 198.96 28 201 C27.34 201.33 26.68 201.66 26 202 C24.37049588 197.87831311 23.73735399 195.29299643 25 191 C24.34 191 23.68 191 23 191 C22.67 191.99 22.34 192.98 22 194 C21.67 193.67 21.34 193.34 21 193 C21 195.97 21 198.94 21 202 C20.34 202.33 19.68 202.66 19 203 C17.65200424 197.23491099 16.77493314 191.93706994 17.125 186.0078125 C17.12796742 183.93122963 17.12796742 183.93122963 16.00390625 182.0234375 C14.82258039 179.64239938 14.8246689 178.13573444 14.9375 175.5 C15.05868443 172.42296922 14.83132326 169.96384813 14 167 C13.65421232 165.00211562 13.31856451 163.00240549 13 161 C13.99 160.67 14.98 160.34 16 160 C15.34 158.96875 14.68 157.9375 14 156.875 C12.02717274 153.46423174 11.61172335 150.9798357 12 147 C13.98 146.01 13.98 146.01 16 145 C15.67 144.34 15.34 143.68 15 143 C13.17293875 142.46386733 13.17293875 142.46386733 11.0625 142.125 C7.18733624 141.26539301 7.18733624 141.26539301 5.5 138.875 C5.2525 137.946875 5.2525 137.946875 5 137 C5.66 137 6.32 137 7 137 C7.66 135.02 8.32 133.04 9 131 C8.01 131 7.02 131 6 131 C5.7525 130.360625 5.505 129.72125 5.25 129.0625 C4.18437567 126.81258459 4.18437567 126.81258459 1.875 126.25 C1.25625 126.1675 0.6375 126.085 0 126 C0.2475 125.1028125 0.2475 125.1028125 0.5 124.1875 C1.1114124 121.88655664 1.1114124 121.88655664 1 119 C1.99 118.505 1.99 118.505 3 118 C2.67 117.01 2.34 116.02 2 115 C3.98 115 5.96 115 8 115 C8.020625 113.72125 8.04125 112.4425 8.0625 111.125 C8.07410156 110.40570313 8.08570313 109.68640625 8.09765625 108.9453125 C8.12649242 106.91814596 8.12649242 106.91814596 7 105 C7.99 104.505 7.99 104.505 9 104 C9 102.35 9 100.7 9 99 C8.01 98.71125 7.02 98.4225 6 98.125 C5.03707031 97.83882812 5.03707031 97.83882812 4.0546875 97.546875 C1.71767746 96.88816871 1.71767746 96.88816871 -1.875 96.375 C-8.22968575 94.82658729 -13.21984847 89.66430661 -16.76171875 84.36328125 C-18 82 -18 82 -18 80 C-16.37660195 78.29115995 -14.70680947 76.62553283 -13 75 C-12.01 74.01 -12.01 74.01 -11 73 C-11.33 72.01 -11.66 71.02 -12 70 C-9.61435923 70.57584432 -7.33317216 71.22227595 -5 72 C-4.505 71.01 -4.505 71.01 -4 70 C-3.01 70 -2.02 70 -1 70 C-1 66.7 -1 63.4 -1 60 C3.75 60.875 3.75 60.875 6 62 C6 61.34 6 60.68 6 60 C10.29 60.66 14.58 61.32 19 62 C19.33 60.02 19.66 58.04 20 56 C18.68 55.67 17.36 55.34 16 55 C15.34 52.69 14.68 50.38 14 48 C13.113125 48.20625 12.22625 48.4125 11.3125 48.625 C7.68628254 49.03551518 6.14270267 48.78369611 3 47 C0 43.68965517 0 43.68965517 0 41 C-0.598125 40.7525 -1.19625 40.505 -1.8125 40.25 C-4 39 -4 39 -5.4375 36.9375 C-7.43958017 34.45492059 -8.90228009 34.33488864 -12 34 C-12.96516243 30.99727245 -13.22393475 28.95784231 -12 26 C-11.01 25.67 -10.02 25.34 -9 25 C-9 24.34 -9 23.68 -9 23 C-9.66 23 -10.32 23 -11 23 C-11 22.34 -11 21.68 -11 21 C-8.09451118 18.95830515 -6.59857954 18 -3 18 C-2.855625 17.360625 -2.71125 16.72125 -2.5625 16.0625 C-2 14 -2 14 -1 13 C0.99958364 12.95919217 3.00045254 12.95745644 5 13 C4.45291273 10.46255685 4.45291273 10.46255685 3 8 C-0.05272465 7.10169161 -0.05272465 7.10169161 -3 7 C-2.38722388 4.03824877 -1.74627478 2.61941217 0 0 Z " fill="#FBEC23" transform="translate(186,143)"/>
<path d="M0 0 C0.54978516 0.44537109 1.09957031 0.89074219 1.66601562 1.34960938 C15.38199603 12.56602241 28.18501424 24.94257069 39 39 C40.15822266 40.43279297 40.15822266 40.43279297 41.33984375 41.89453125 C71.10800989 79.28109062 88.93261408 125.6332769 94 173 C94.11214844 174.0415625 94.22429688 175.083125 94.33984375 176.15625 C100.13214641 241.53785809 80.60337725 309.753016 38.56298828 360.50415039 C36.41298348 363.03767576 34.21300323 365.52116019 32 368 C30.89978516 369.26457031 30.89978516 369.26457031 29.77734375 370.5546875 C20.33075474 381.28710986 10.29059945 391.21489874 -1 400 C-2.43859375 401.16402344 -2.43859375 401.16402344 -3.90625 402.3515625 C-41.2691699 432.07206697 -88.47550345 450.6473837 -136 455 C-137.17949219 455.11085938 -138.35898437 455.22171875 -139.57421875 455.3359375 C-205.46442245 460.6071538 -271.75553309 440.98850935 -323 399 C-323.60602051 398.50822266 -324.21204102 398.01644531 -324.83642578 397.50976562 C-338.15768173 386.63793702 -350.48664714 374.62624505 -361 361 C-361.78503906 360.0203125 -362.57007813 359.040625 -363.37890625 358.03125 C-405.82941125 304.702437 -423.54530923 236.38873891 -416.359375 169.04199219 C-410.27262334 117.51962422 -388.80889772 66.91103948 -353 29 C-351.89072135 27.71272082 -350.78643909 26.42111716 -349.6875 25.125 C-341.569963 15.84513668 -332.72030706 7.57513584 -323 0 C-321.99324219 -0.80050781 -320.98648438 -1.60101563 -319.94921875 -2.42578125 C-247.80567935 -59.38355094 -148.43882924 -72.53094248 0 0 Z M-330.72265625 14.9453125 C-332.6737616 16.70565798 -334.66013544 18.39184323 -336.6875 20.0625 C-339.82640734 22.73313212 -342.47456345 25.68784425 -345.13671875 28.828125 C-347.09539486 31.11119401 -349.13760008 33.29866603 -351.1875 35.5 C-394.41352277 83.69957531 -413.65556999 147.11254079 -412 211 C-411.98984863 211.74685059 -411.97969727 212.49370117 -411.96923828 213.26318359 C-411.16179713 270.33652361 -384.13295825 328.26087938 -345.41015625 369.37890625 C-343 372 -343 372 -340.90625 374.640625 C-339.19160596 376.76284837 -337.51861761 378.43900162 -335.4375 380.1875 C-332.20577402 382.93891441 -329.09502084 385.7833 -326 388.6875 C-303.65964926 408.99410847 -276.24790891 424.57469261 -248 435 C-247.32291992 435.25442871 -246.64583984 435.50885742 -245.94824219 435.77099609 C-209.06738892 449.45204467 -166.96100552 454.33512285 -128 448 C-126.48997264 447.78886343 -124.97953171 447.58066944 -123.46875 447.375 C-75.30450464 440.61623686 -27.89722597 418.42417033 7.26953125 384.61328125 C9.5796871 382.40227372 11.93248845 380.31101451 14.375 378.25 C17.61755395 375.44068916 20.40985244 372.40451183 23.17578125 369.12890625 C24.40919972 367.68947784 25.67913567 366.28067879 26.98046875 364.90234375 C48.14653111 342.42545057 63.5287817 313.78012193 74.24072266 285.02539062 C74.87010757 283.34649118 75.53069004 281.67932512 76.19921875 280.015625 C79.74892868 270.97999973 81.83647089 261.44325705 84 252 C84.15887695 251.30745117 84.31775391 250.61490234 84.48144531 249.90136719 C91.13080574 220.07680927 90.94122243 188.03007079 86 158 C85.83902832 157.01902344 85.67805664 156.03804687 85.51220703 155.02734375 C78.87452115 116.3106976 62.63368533 80.27465126 39 49 C38.29359375 48.0615625 37.5871875 47.123125 36.859375 46.15625 C32.4069218 40.43683858 27.53442271 35.12674259 22.6015625 29.82421875 C20.4474164 27.48570879 18.36708563 25.11266158 16.3125 22.6875 C12.85535164 18.71788024 9.02276354 15.38262529 5 12 C4.07574219 11.18789062 3.15148437 10.37578125 2.19921875 9.5390625 C-23.00950572 -12.4954681 -52.48818888 -28.50966871 -84.1875 -39.0625 C-84.87424805 -39.29242645 -85.56099609 -39.52235291 -86.26855469 -39.75924683 C-98.68700765 -43.88253802 -111.23398151 -46.75782616 -124.1875 -48.625 C-125.38536133 -48.80675781 -125.38536133 -48.80675781 -126.60742188 -48.9921875 C-200.79425928 -59.93876174 -275.68090086 -35.31398389 -330.72265625 14.9453125 Z " fill="#099A4D" transform="translate(422,61)"/>
<path d="M0 0 C9.24 0 18.48 0 28 0 C35.41599638 13.4586601 42.6441377 26.98849292 49.65844727 40.65893555 C50.25197998 41.81433838 50.8455127 42.96974121 51.45703125 44.16015625 C51.97241455 45.16699463 52.48779785 46.17383301 53.01879883 47.21118164 C55.95973398 52.83538035 58.99102655 58.41190645 62 64 C62.33 42.88 62.66 21.76 63 0 C70.26 0 77.52 0 85 0 C85 33.66 85 67.32 85 102 C76.75 102 68.5 102 60 102 C53.39751296 90.56354923 47.2800799 78.91274336 41.2890625 67.14819336 C35.40093959 55.63438534 29.20168303 44.36975223 23 33 C22.67 55.77 22.34 78.54 22 102 C14.74 102 7.48 102 0 102 C0 68.34 0 34.68 0 0 Z " fill="#00A750" transform="translate(1111,363)"/>
<path d="M0 0 C1.52678741 -0.01146261 3.05353658 -0.03182291 4.58007812 -0.06152344 C21.56744138 -0.39028741 38.3259185 2.03227236 51.49633789 13.79516602 C59.29035455 22.19859139 63.3877859 32.97499902 64.24633789 44.29516602 C64.35075195 45.48625977 64.35075195 45.48625977 64.45727539 46.70141602 C65.06628139 60.7554007 61.14394023 75.06478553 52.43383789 86.17016602 C41.11479993 98.22040798 24.03387311 102.75769655 8.00512695 103.43139648 C-3.3555334 103.68649639 -14.43788432 103.42674379 -25.75366211 102.29516602 C-25.75366211 69.29516602 -25.75366211 36.29516602 -25.75366211 2.29516602 C-18.52591128 -1.3187094 -7.97986149 0.04146042 0 0 Z M-2.75366211 19.29516602 C-2.75366211 40.74516602 -2.75366211 62.19516602 -2.75366211 84.29516602 C16.03853163 84.61065201 16.03853163 84.61065201 30.48852539 75.36157227 C39.01086059 65.34309378 38.97911928 53.73500239 38.24633789 41.29516602 C37.21214596 33.70419725 32.96718872 28.24266092 27.24633789 23.29516602 C20.88109088 19.45059919 14.57119075 18.1514875 7.18383789 18.17016602 C6.16161133 18.16758789 5.13938477 18.16500977 4.08618164 18.16235352 C1.01958129 18.21234949 1.01958129 18.21234949 -2.75366211 19.29516602 Z " fill="#00A74F" transform="translate(650.753662109375,362.704833984375)"/>
<path d="M0 0 C10.06120221 7.69690598 16.20655948 19.28377773 18.27734375 31.7421875 C18.57089691 35.49663358 18.6114517 39.2274657 18.58984375 42.9921875 C18.5842041 44.01344727 18.57856445 45.03470703 18.57275391 46.08691406 C18.33826688 60.64368295 14.34990887 73.12983149 4.24609375 83.96484375 C-4.16839377 91.56125609 -15.47631304 96.01661697 -26.72265625 96.7421875 C-27.38265625 96.79375 -28.04265625 96.8453125 -28.72265625 96.8984375 C-41.15820967 97.44706486 -53.29637984 93.74778495 -62.96875 85.92578125 C-73.10855048 76.43768817 -78.32621418 64.21704426 -79.10546875 50.4453125 C-79.58656516 35.3116929 -77.72973517 22.35663555 -68.72265625 9.7421875 C-68.28308594 9.10796875 -67.84351563 8.47375 -67.390625 7.8203125 C-51.90335072 -12.35331278 -19.98739461 -13.02258125 0 0 Z M-46.72265625 18.7421875 C-54.70114815 28.83263313 -54.95820699 41.40859671 -53.72265625 53.7421875 C-51.88016604 62.11370714 -48.09696895 69.98985265 -40.72265625 74.7421875 C-34.91081172 77.63657833 -30.31333758 78.14034136 -24.015625 76.5390625 C-17.74280645 74.35907105 -13.58645919 70.44326237 -10.625 64.5625 C-5.41587462 53.17337282 -4.38713534 38.58043537 -8.80859375 26.6796875 C-11.71716341 20.5145142 -15.74481922 15.79831307 -21.34765625 11.9296875 C-31.44428139 8.37717125 -39.72114134 10.81942063 -46.72265625 18.7421875 Z " fill="#00A74F" transform="translate(1082.72265625,370.2578125)"/>
<path d="M0 0 C8.58 0 17.16 0 26 0 C28.04814664 7.03841086 30.09389847 14.07743769 32.1340332 21.11816406 C32.82606942 23.50396493 33.51938913 25.88939394 34.21411133 28.27441406 C37.87101658 40.83198905 41.47417379 53.38073129 44.5320282 66.09979248 C45.4626215 70.15418884 45.4626215 70.15418884 47 74 C47.17426514 73.28610107 47.34853027 72.57220215 47.52807617 71.83666992 C53.49016588 47.62483867 60.65885267 23.82515651 68 0 C76.58 0 85.16 0 94 0 C92.05213432 6.49288559 90.06842214 12.94033489 87.92138672 19.36523438 C87.48422836 20.67933792 87.48422836 20.67933792 87.03823853 22.01998901 C86.08688355 24.87840989 85.13336834 27.73610436 84.1796875 30.59375 C83.51367582 32.59245941 82.84775317 34.5911985 82.18191528 36.58996582 C80.79266125 40.75919599 79.40233183 44.92806554 78.01123047 49.09667969 C76.22582407 54.44717315 74.44313618 59.79856781 72.66123772 65.15023041 C71.28975995 69.26826876 69.91685984 73.3858318 68.54352188 77.50325012 C67.88520357 79.47753713 67.22733233 81.45197326 66.56991196 83.42655945 C65.65466385 86.17483247 64.73750621 88.92246076 63.81982422 91.66992188 C63.54761047 92.48858734 63.27539673 93.30725281 62.99493408 94.15072632 C61.11427041 99.77145919 61.11427041 99.77145919 60 102 C50.76 102 41.52 102 32 102 C24.89602106 80.94329596 17.95185391 59.83489252 11.10952759 38.69180298 C10.24649768 36.02541942 9.38079345 33.35992742 8.51278687 30.69515991 C7.27913833 26.90701184 6.05513098 23.11578669 4.83203125 19.32421875 C4.27341904 17.61371338 4.27341904 17.61371338 3.70352173 15.86865234 C3.36154755 14.80300049 3.01957336 13.73734863 2.66723633 12.6394043 C2.36811844 11.71540329 2.06900055 10.79140228 1.76081848 9.83940125 C0.8984547 6.62102938 0.47120248 3.29841734 0 0 Z " fill="#00A74F" transform="translate(755,363)"/>
<path d="M0 0 C0.97812873 3.05628064 1.00835683 4.85277447 0.00390625 7.890625 C-0.33930664 8.95410156 -0.33930664 8.95410156 -0.68945312 10.0390625 C-0.93630859 10.76867187 -1.18316406 11.49828125 -1.4375 12.25 C-1.68048828 12.99507813 -1.92347656 13.74015625 -2.17382812 14.5078125 C-2.77332981 16.34158235 -3.38544487 18.17122004 -4 20 C-6.85481152 19.48094336 -9.53218643 18.83204045 -12.3046875 17.95703125 C-16.37388992 16.90316804 -19.94986731 16.66776875 -24.125 16.6875 C-24.81464844 16.67138672 -25.50429688 16.65527344 -26.21484375 16.63867188 C-30.66633599 16.63441615 -33.48095984 17.24793013 -37 20 C-39.22061994 22.79129508 -39.22061994 22.79129508 -39.1875 25.8125 C-37.2823649 30.92628368 -33.75802131 32.58313483 -29 35 C-25.87401741 36.32062531 -22.71614406 37.55967411 -19.5625 38.8125 C-9.09376428 43.01193774 -0.80496959 48.34550222 4 59 C6.42507594 66.91861531 5.5907928 75.6007906 2 83 C-2.60781642 91.03414145 -9.3002947 96.08510223 -18.125 98.8125 C-34.00125992 102.52727948 -50.01244901 101.41878483 -65 95 C-64.34034961 88.13963599 -62.7637236 81.65556077 -61 75 C-57.34445675 75.5462306 -53.97406092 76.24128227 -50.5 77.5 C-42.84045847 80.1126556 -33.84995226 81.78578648 -26.0625 78.75 C-22.21668805 76.60305067 -22.21668805 76.60305067 -20 73 C-19.76246692 69.49211747 -19.76246692 69.49211747 -21 66 C-26.41718092 60.52165736 -32.96075609 58.30954603 -40.03710938 55.5703125 C-49.4444488 51.76112228 -56.96680799 46.71770426 -61.90625 37.67578125 C-64.89930558 30.35348457 -64.69057437 22.39184678 -62 15 C-57.11716813 6.24457734 -49.65019525 0.31239006 -40.1875 -2.8125 C-26.62463657 -6.08564596 -13.05631507 -4.37162119 0 0 Z " fill="#00A74F" transform="translate(954,366)"/>
<path d="M0 0 C3.54590318 1.28546753 6.30343845 2.80169532 9.3125 5.0625 C32.34428626 21.48457245 58.40287312 30.72834253 86 36 C87.18078125 36.226875 88.3615625 36.45375 89.578125 36.6875 C130.4743931 43.28958812 183.25322888 33.83087599 217.40625 9.26953125 C217.9321875 8.85058594 218.458125 8.43164062 219 8 C220.98 8.99 220.98 8.99 223 10 C223 10.99 223 11.98 223 13 C222.01 13.66 221.02 14.32 220 15 C221.657626 20.91616793 224.65919633 25.526118 227.98632812 30.609375 C231.0815086 35.53375231 231.0815086 35.53375231 230.61254883 38.21630859 C230.41040771 38.80492676 230.2082666 39.39354492 230 40 C228.98800537 39.97643433 228.98800537 39.97643433 227.95556641 39.95239258 C224.84546576 39.88933921 221.73550028 39.85078869 218.625 39.8125 C217.56410156 39.78736328 216.50320313 39.76222656 215.41015625 39.73632812 C207.27798326 39.66149218 199.89409224 40.4039385 193 45 C189.63699258 44.68471805 188.26087198 43.38290768 186 41 C186.77601563 40.40574219 187.55203125 39.81148438 188.3515625 39.19921875 C191.90666339 36.47341907 195.45409148 33.73774209 199 31 C199.97694824 30.24710693 199.97694824 30.24710693 200.97363281 29.47900391 C202.90236902 27.99018004 204.82671699 26.49585899 206.75 25 C207.3579541 24.53166748 207.9659082 24.06333496 208.59228516 23.58081055 C211.76769858 21.20278629 211.76769858 21.20278629 214 18 C213.00484375 18.556875 212.0096875 19.11375 210.984375 19.6875 C202.92045472 24.12109262 194.78684786 28.11498743 186.25 31.5625 C185.4053418 31.90861328 184.56068359 32.25472656 183.69042969 32.61132812 C179.69351783 34.18562526 176.37728501 35.48933064 172 35 C172.50660156 36.68416016 172.50660156 36.68416016 173.0234375 38.40234375 C177.84599068 54.53754783 177.84599068 54.53754783 179 61 C178 62 178 62 175.4375 62.0625 C174.633125 62.041875 173.82875 62.02125 173 62 C170.47359164 56.60695064 169.01791319 51.38319173 167.8125 45.5625 C167.63525391 44.73556641 167.45800781 43.90863281 167.27539062 43.05664062 C166.84389588 41.03911113 166.4210455 39.01973604 166 37 C164.2675 37.680625 164.2675 37.680625 162.5 38.375 C155.55492001 40.727186 148.2555881 41.24328222 141 42 C141 42.66 141 43.32 141 44 C141.79664063 43.95359375 142.59328125 43.9071875 143.4140625 43.859375 C149.98404303 43.63558004 154.00980018 43.54928124 159 48 C159.33 48.33 159.66 48.66 160 49 C159.54525386 55.13907285 159.54525386 55.13907285 157.8125 57.875 C155.30025086 59.43432705 152.90849054 59.67683438 150 60 C149.01 57.525 149.01 57.525 148 55 C150.31 54.34 152.62 53.68 155 53 C155 51.68 155 50.36 155 49 C150.38 49 145.76 49 141 49 C141 55.6 141 62.2 141 69 C134.28229665 69 134.28229665 69 130.4375 66.125 C123.45758971 60.97405016 117.85045839 60.66375017 109.41796875 60.69726562 C107.17434424 60.63978434 105.17551558 60.55619421 103 60 C100.9453125 57.45703125 100.9453125 57.45703125 100 55 C108.34761996 51.60503494 116.92311214 49.32513251 125.64501953 47.10693359 C126.57942871 46.86281738 127.51383789 46.61870117 128.4765625 46.3671875 C129.32299316 46.15175293 130.16942383 45.93631836 131.04150391 45.71435547 C133.19473026 45.18306656 133.19473026 45.18306656 134 43 C132.78054688 43.16113281 131.56109375 43.32226562 130.3046875 43.48828125 C124.2464406 44.15760262 118.21461899 44.18397999 112.125 44.1875 C111.01769531 44.19974609 109.91039062 44.21199219 108.76953125 44.22460938 C101.62944074 44.23719473 94.97190813 43.54474239 88 42 C87.94368408 42.77811035 87.88736816 43.5562207 87.8293457 44.35791016 C87.24301618 52.29752647 86.19888328 60.13160101 85 68 C82.66796875 68.19140625 82.66796875 68.19140625 80 68 C78.55078125 66.71484375 78.55078125 66.71484375 77.3125 64.9375 C70.60700104 56.46106158 61.47962127 51.90016887 50.9375 50.3125 C49.968125 50.209375 48.99875 50.10625 48 50 C48 47.69 48 45.38 48 43 C59.55 43 71.1 43 83 43 C83 42.01 83 41.02 83 40 C82.23300781 39.99742187 81.46601563 39.99484375 80.67578125 39.9921875 C72.79214007 39.71749617 65.75075525 38.35914764 58.1875 36.1875 C56.88196167 35.8150415 56.88196167 35.8150415 55.55004883 35.43505859 C49.81256313 33.72226239 44.40960192 31.56252933 39 29 C38.91878906 29.63292969 38.83757812 30.26585937 38.75390625 30.91796875 C37.68298789 35.2959718 35.80650375 39.22264205 33.9375 43.3125 C33.37192383 44.56643555 33.37192383 44.56643555 32.79492188 45.84570312 C31.86788193 47.89927262 30.93613122 49.95056287 30 52 C27.03 51.505 27.03 51.505 24 51 C24 47 24 47 25.5 44.8125 C27.6017559 40.87170768 27.25746705 37.3769399 27 33 C23.82549399 31.94183133 21.705216 31.92737807 18.37890625 32.0078125 C17.27869141 32.02457031 16.17847656 32.04132813 15.04492188 32.05859375 C12.72704979 32.10279322 10.40931398 32.15485175 8.09179688 32.21484375 C6.43954102 32.23611328 6.43954102 32.23611328 4.75390625 32.2578125 C3.74658447 32.2798877 2.7392627 32.30196289 1.70141602 32.32470703 C-1.43217067 31.94805359 -2.73016804 31.15084234 -5 29 C-7.01427301 25.27359493 -7.19506073 22.19380562 -7 18 C-5.68 18 -4.36 18 -3 18 C-2.34 20.31 -1.68 22.62 -1 25 C3.7897321 25.23428313 3.7897321 25.23428313 8 23 C8.58571408 19.23469519 8.34280299 17.52644744 6.25 14.3125 C4.15730148 11.98978562 4.15730148 11.98978562 1.875 10.625 C-0.895767 8.2236686 -1.21003049 5.48903201 -2 2 C-1.34 1.34 -0.68 0.68 0 0 Z " fill="#0F9C52" transform="translate(143,413)"/>
<path d="M0 0 C4.33848768 3.36342353 6.09275261 6.98861351 7.546875 12.19921875 C9.196875 12.19921875 10.846875 12.19921875 12.546875 12.19921875 C12.546875 14.17921875 12.546875 16.15921875 12.546875 18.19921875 C10.896875 18.19921875 9.246875 18.19921875 7.546875 18.19921875 C7.48628906 19.16601562 7.42570313 20.1328125 7.36328125 21.12890625 C5.97015542 42.77593833 5.97015542 42.77593833 4.546875 44.19921875 C2.88070385 44.23985707 1.21299405 44.24193975 -0.453125 44.19921875 C-0.14512013 40.63631521 0.16907099 37.07398317 0.484375 33.51171875 C0.61489258 32.00061523 0.61489258 32.00061523 0.74804688 30.45898438 C0.87856445 28.99428711 0.87856445 28.99428711 1.01171875 27.5 C1.090271 26.60450439 1.16882324 25.70900879 1.24975586 24.78637695 C1.54249184 22.23738503 2.04369075 19.71514001 2.546875 17.19921875 C-1.413125 17.19921875 -5.373125 17.19921875 -9.453125 17.19921875 C-10.00179821 22.53655063 -10.00179821 22.53655063 -7.953125 27.13671875 C-5.50796617 30.49881214 -6.017006 34.1812044 -6.453125 38.19921875 C-7.453125 41.26171875 -7.453125 41.26171875 -8.453125 43.19921875 C-9.443125 43.19921875 -10.433125 43.19921875 -11.453125 43.19921875 C-11.453125 42.53921875 -11.453125 41.87921875 -11.453125 41.19921875 C-17.51471397 40.93278515 -17.51471397 40.93278515 -23.390625 42.19921875 C-27.62861111 43.58305095 -32.05214196 44.09305007 -36.453125 43.19921875 C-38.73721194 40.83533838 -39.41501661 39.75814176 -39.640625 36.44921875 C-39.57875 35.70671875 -39.516875 34.96421875 -39.453125 34.19921875 C-38.463125 33.86921875 -37.473125 33.53921875 -36.453125 33.19921875 C-36.453125 35.17921875 -36.453125 37.15921875 -36.453125 39.19921875 C-35.76347656 38.98265625 -35.07382813 38.76609375 -34.36328125 38.54296875 C-26.57943144 36.23664288 -19.02950224 34.2888305 -11.453125 38.19921875 C-11.783125 34.89921875 -12.113125 31.59921875 -12.453125 28.19921875 C-15.285293 27.86473616 -15.285293 27.86473616 -18.453125 28.19921875 C-20.83032193 30.07423806 -20.83032193 30.07423806 -22.453125 32.19921875 C-24.103125 31.53921875 -25.753125 30.87921875 -27.453125 30.19921875 C-26.015625 27.26171875 -26.015625 27.26171875 -23.453125 24.19921875 C-20.4534105 23.3782986 -17.55460841 23.21247295 -14.453125 23.19921875 C-14.453125 20.88921875 -14.453125 18.57921875 -14.453125 16.19921875 C-42.34557785 16.51815532 -69.93965703 21.3602348 -96.1015625 31.02734375 C-99.453125 32.19921875 -99.453125 32.19921875 -101.453125 32.19921875 C-101.05480469 33.11703125 -100.65648437 34.03484375 -100.24609375 34.98046875 C-92.453125 52.99710539 -92.453125 52.99710539 -92.453125 58.19921875 C-94.103125 58.52921875 -95.753125 58.85921875 -97.453125 59.19921875 C-98.9587901 55.57654581 -100.45669046 51.95071326 -101.953125 48.32421875 C-102.59701172 46.77541016 -102.59701172 46.77541016 -103.25390625 45.1953125 C-103.86298828 43.71611328 -103.86298828 43.71611328 -104.484375 42.20703125 C-104.86142578 41.2958252 -105.23847656 40.38461914 -105.62695312 39.44580078 C-106.453125 37.19921875 -106.453125 37.19921875 -106.453125 35.19921875 C-110.27049964 37.14815684 -114.08113671 39.10991623 -117.890625 41.07421875 C-118.97923828 41.62980469 -120.06785156 42.18539062 -121.18945312 42.7578125 C-122.22392578 43.29277344 -123.25839844 43.82773438 -124.32421875 44.37890625 C-125.28255615 44.87116699 -126.24089355 45.36342773 -127.22827148 45.87060547 C-129.57994356 47.00399522 -129.57994356 47.00399522 -130.453125 49.19921875 C-128.34768487 48.91689154 -126.24378911 48.62302895 -124.140625 48.32421875 C-122.38298828 48.08058594 -122.38298828 48.08058594 -120.58984375 47.83203125 C-117.30781605 47.37621254 -117.30781605 47.37621254 -114.453125 45.19921875 C-112.265625 45.57421875 -112.265625 45.57421875 -110.453125 46.19921875 C-110.5975 46.74449219 -110.741875 47.28976563 -110.890625 47.8515625 C-112.66115335 55.04433392 -113.32583832 61.94245462 -111.453125 69.19921875 C-112.938125 69.69421875 -112.938125 69.69421875 -114.453125 70.19921875 C-117.61641191 65.24798706 -118.59260311 61.79955544 -118.515625 55.94921875 C-118.50660156 55.0571875 -118.49757813 54.16515625 -118.48828125 53.24609375 C-118.47667969 52.570625 -118.46507812 51.89515625 -118.453125 51.19921875 C-121.35111787 51.25940552 -124.24408737 51.34648881 -127.140625 51.44921875 C-127.95724609 51.46339844 -128.77386719 51.47757813 -129.61523438 51.4921875 C-134.79496133 51.70189304 -137.71508237 52.28249339 -141.453125 56.19921875 C-143.74946324 59.64372612 -143.99328985 62.13734158 -144.453125 66.19921875 C-141.07966165 66.33878602 -141.07966165 66.33878602 -137.453125 65.19921875 C-135.63031421 62.71452277 -134.51072682 60.08299017 -133.453125 57.19921875 C-129.20294121 56.78253406 -127.09969932 56.75899793 -123.515625 59.19921875 C-121.38349175 62.30050348 -120.65136336 64.35050036 -120.90234375 68.13671875 C-121.93313378 71.99669842 -124.3094733 74.80590367 -127.453125 77.19921875 C-132.03055847 79.17598701 -136.33814506 79.54926145 -141.265625 79.51171875 C-141.966875 79.51042969 -142.668125 79.50914063 -143.390625 79.5078125 C-148.98579023 79.40438985 -153.34245676 78.38950514 -158.453125 76.19921875 C-157.958125 74.71421875 -157.958125 74.71421875 -157.453125 73.19921875 C-156.751875 73.34359375 -156.050625 73.48796875 -155.328125 73.63671875 C-143.44181903 76.00476584 -143.44181903 76.00476584 -132.15234375 72.40625 C-129.71316402 70.6735913 -128.55821495 68.96194362 -127.453125 66.19921875 C-127.453125 64.87921875 -127.453125 63.55921875 -127.453125 62.19921875 C-128.113125 61.86921875 -128.773125 61.53921875 -129.453125 61.19921875 C-129.824375 62.34390625 -129.824375 62.34390625 -130.203125 63.51171875 C-131.58618495 66.48529764 -132.68316983 67.52045804 -135.453125 69.19921875 C-139.00666429 70.38373185 -141.72325978 70.46563769 -145.453125 70.19921875 C-148.81772037 68.11084921 -149.28845659 64.82590772 -150.453125 61.19921875 C-158.98242247 68.16374542 -158.98242247 68.16374542 -167.453125 75.19921875 C-166.87674016 78.45164471 -165.98526991 80.01339273 -163.58203125 82.2578125 C-163.00775391 82.80888672 -162.43347656 83.35996094 -161.84179688 83.92773438 C-160.62838026 85.06328468 -159.41483941 86.19870225 -158.20117188 87.33398438 C-154.98997375 90.41572771 -152.69848744 92.78684191 -151.453125 97.19921875 C-153.31439906 99.06049281 -155.95241636 98.66040014 -158.4453125 98.91796875 C-160.65451285 99.16547825 -160.65451285 99.16547825 -163.453125 100.19921875 C-164.34133734 102.22582047 -164.34133734 102.22582047 -164.890625 104.69921875 C-168.65372339 118.43157256 -168.65372339 118.43157256 -173.453125 122.19921875 C-178.87647803 122.72405937 -181.96833511 122.56281117 -186.453125 119.19921875 C-186.123125 118.20921875 -185.793125 117.21921875 -185.453125 116.19921875 C-184.463125 116.85921875 -183.473125 117.51921875 -182.453125 118.19921875 C-179.42668917 118.5989493 -179.42668917 118.5989493 -176.453125 117.19921875 C-173.86300784 113.2679406 -172.63113149 108.92311183 -171.515625 104.38671875 C-170.21703316 100.49094324 -168.92341802 99.32871674 -165.453125 97.19921875 C-162.140625 95.94921875 -162.140625 95.94921875 -159.453125 95.19921875 C-160.74169513 93.88367854 -162.03408391 92.57187778 -163.328125 91.26171875 C-164.40707031 90.16537109 -164.40707031 90.16537109 -165.5078125 89.046875 C-167.32339692 87.14253876 -167.32339692 87.14253876 -169.453125 86.19921875 C-169.62328125 86.781875 -169.7934375 87.36453125 -169.96875 87.96484375 C-175.73883929 107.48493304 -175.73883929 107.48493304 -177.453125 109.19921875 C-179.11929615 109.23985707 -180.78700595 109.24193975 -182.453125 109.19921875 C-182.783125 107.87921875 -183.113125 106.55921875 -183.453125 105.19921875 C-185.82618078 104.78140996 -185.82618078 104.78140996 -188.453125 105.19921875 C-190.3155688 107.60780589 -190.3155688 107.60780589 -191.453125 110.19921875 C-192.773125 109.86921875 -194.093125 109.53921875 -195.453125 109.19921875 C-196.20243179 101.3731256 -194.85111875 95.76016025 -190.453125 89.19921875 C-186.35378196 85.19985969 -182.40274027 83.07712598 -176.703125 82.57421875 C-175.50429687 82.46207031 -175.50429687 82.46207031 -174.28125 82.34765625 C-173.67796875 82.29867187 -173.0746875 82.2496875 -172.453125 82.19921875 C-173.773125 80.87921875 -175.093125 79.55921875 -176.453125 78.19921875 C-171.94661417 67.92161496 -160.19867179 60.78016616 -151.453125 54.19921875 C-150.88964355 53.76963867 -150.32616211 53.34005859 -149.74560547 52.89746094 C-111.99461455 24.24508746 -65.21421975 10.39150932 -18.203125 11.01171875 C-16.17448931 11.02682147 -14.14584251 11.0404998 -12.1171875 11.05273438 C-7.22888316 11.08523165 -2.3411336 11.13669174 2.546875 11.19921875 C1.4809749 7.00528396 1.4809749 7.00528396 -1.1953125 3.83984375 C-8.70686262 1.70853887 -17.17479879 3.0208576 -24.625 4.859375 C-25.22828125 4.97152344 -25.8315625 5.08367188 -26.453125 5.19921875 C-27.453125 4.19921875 -27.453125 4.19921875 -27.515625 1.63671875 C-27.495 0.83234375 -27.474375 0.02796875 -27.453125 -0.80078125 C-18.94920082 -4.04037141 -7.98937638 -4.86532536 0 0 Z " fill="#129D54" transform="translate(277.453125,31.80078125)"/>
<path d="M0 0 C3.88440092 0.26904941 6.23375829 2.57236848 9.125 5 C10.57132812 6.21236328 10.57132812 6.21236328 12.046875 7.44921875 C15.65275776 10.56382383 19.20105482 13.73474765 22.7109375 16.95703125 C24.29357059 18.36951778 25.92437023 19.72917893 27.58984375 21.04296875 C31.20327672 23.9770529 34.00664698 27.45123968 37 31 C37.7425 31.85464844 38.485 32.70929688 39.25 33.58984375 C46.43246398 41.98089542 52.82898806 50.84427312 59 60 C59.4007373 60.58523437 59.80147461 61.17046875 60.21435547 61.7734375 C71.46221711 78.40368152 86.66980687 106.47831559 85 127 C83.87109375 129.29296875 83.87109375 129.29296875 82.4375 131.1875 C80.35084906 133.84314964 80.35084906 133.84314964 80.22265625 137.07421875 C81.32308953 139.80041779 83.11683846 141.76374567 85 144 C86.53597454 147.07194908 86.2265038 149.60244293 86 153 C84.5 156.4375 84.5 156.4375 83 159 C85.97 159.33 88.94 159.66 92 160 C92 163.63 92 167.26 92 171 C90.02 171 88.04 171 86 171 C86 169.35 86 167.7 86 166 C77.09 166 68.18 166 59 166 C59 164.02 59 162.04 59 160 C60.18078125 159.93941406 61.3615625 159.87882813 62.578125 159.81640625 C64.1354277 159.73197418 65.69271879 159.64732751 67.25 159.5625 C68.02730469 159.52318359 68.80460937 159.48386719 69.60546875 159.44335938 C70.73662109 159.38051758 70.73662109 159.38051758 71.890625 159.31640625 C72.92751465 159.26141968 72.92751465 159.26141968 73.98535156 159.20532227 C76.06628329 158.99324476 77.98572422 158.55491323 80 158 C81.44073241 153.49771122 81.88458048 148.91659104 79.875 144.5625 C77.24871143 142.3739262 75.31446363 142.70538101 72 143 C72.165 144.093125 72.33 145.18625 72.5 146.3125 C73 150 73 150 73 153 C71.35 153.66 69.7 154.32 68 155 C65.66520017 151.35187527 65.61981053 148.25812212 66 144 C67.5 141.5625 67.5 141.5625 69 140 C68.236875 139.46375 67.47375 138.9275 66.6875 138.375 C63.68492721 135.72156358 62.41804722 133.7317032 61 130 C60.8125 126.625 60.8125 126.625 61 124 C63.31 124 65.62 124 68 124 C68.06058594 124.71027344 68.12117188 125.42054688 68.18359375 126.15234375 C68.26738281 127.07144531 68.35117187 127.99054688 68.4375 128.9375 C68.51871094 129.85402344 68.59992188 130.77054688 68.68359375 131.71484375 C68.76044976 133.96159732 68.76044976 133.96159732 70 135 C72.33297433 135.04092937 74.66705225 135.04241723 77 135 C79.91767689 129.78226729 79.71154192 124.97859646 78.33886719 119.23242188 C77.42464515 116.20806554 76.42327492 113.23050057 75.375 110.25 C75.01470703 109.19683594 74.65441406 108.14367187 74.28320312 107.05859375 C71.63964388 99.46947322 68.68678278 92.15012418 65 85 C61.65004457 85.54964726 59.08839895 86.29920848 56.1875 88.0625 C55.135625 88.701875 54.08375 89.34125 53 90 C53.78246094 90.71285156 54.56492187 91.42570312 55.37109375 92.16015625 C56.39401666 93.12677148 57.41610865 94.09426656 58.4375 95.0625 C58.95376953 95.52849609 59.47003906 95.99449219 60.00195312 96.47460938 C63.78668007 100.11091566 64.85249523 102.78816482 65 108 C64.0625 110.9375 64.0625 110.9375 63 113 C62.175 112.67 61.35 112.34 60.5 112 C55.70666536 110.63047582 51.25806062 110.09677575 46.5 112 C46.005 112.33 45.51 112.66 45 113 C45 111.68 45 110.36 45 109 C48.96 107.35 52.92 105.7 57 104 C52.01209999 98.5641966 52.01209999 98.5641966 46 94.5 C45.34 94.005 44.68 93.51 44 93 C43.72347223 90.31491538 43.91343186 87.7052543 44 85 C46.43431639 83.82625827 48.87204182 82.66084237 51.3125 81.5 C52.00279297 81.16613281 52.69308594 80.83226562 53.40429688 80.48828125 C58.66015625 78 58.66015625 78 62 78 C58.40765471 73.17278601 54.75725706 69.12927126 49 67 C44.62107602 66.50262807 40.37254083 66.41162694 36 67 C33.67471713 69.32528287 33.70488975 69.84665898 33.6875 73 C33.67074219 73.70125 33.65398437 74.4025 33.63671875 75.125 C33.75660156 75.74375 33.87648438 76.3625 34 77 C34.99 77.66 35.98 78.32 37 79 C36.67 80.65 36.34 82.3 36 84 C33.60316131 83.04126452 32.26443911 82.429248 30.890625 80.19921875 C29.38839148 76.48975615 29.43747308 72.93065682 30 69 C32.44892558 64.66728551 35.33524566 62.64130245 40 61 C48.55263158 60.27631579 48.55263158 60.27631579 52 62 C51.4946875 61.22914063 50.989375 60.45828125 50.46875 59.6640625 C49.49421875 58.15972656 49.49421875 58.15972656 48.5 56.625 C47.52546875 55.12839844 47.52546875 55.12839844 46.53125 53.6015625 C45 51 45 51 45 49 C43.20727844 50.18590687 41.41589332 51.37383403 39.625 52.5625 C38.53574219 53.284375 37.44648438 54.00625 36.32421875 54.75 C32.47845545 57.32497965 28.76009071 60.07001403 25.05859375 62.84765625 C24.37925781 63.22792969 23.69992187 63.60820312 23 64 C22.01 63.67 21.02 63.34 20 63 C19.3125 60.9375 19.3125 60.9375 19 59 C25.56276111 54.16686378 32.17148431 49.4511806 39 45 C37.79618552 42.50638429 36.54571278 40.31856917 35 38 C32.02488323 39.36126402 29.71923294 40.93500338 27.25 43.07421875 C26.5590625 43.65880859 25.868125 44.24339844 25.15625 44.84570312 C23.71294677 46.07852463 22.27546208 47.31818926 20.84375 48.56445312 C20.1528125 49.14517578 19.461875 49.72589844 18.75 50.32421875 C18.12609375 50.86135498 17.5021875 51.39849121 16.859375 51.9519043 C15 53 15 53 12.765625 52.66723633 C12.18296875 52.44704834 11.6003125 52.22686035 11 52 C11 50.68 11 49.36 11 48 C13.1875 45.859375 13.1875 45.859375 16 43.75 C16.928125 43.04359375 17.85625 42.3371875 18.8125 41.609375 C19.534375 41.07828125 20.25625 40.5471875 21 40 C20.58001673 36.39144645 20.58001673 36.39144645 18.4375 33.6875 C14.89342826 32.68789002 11.67781281 32.87740624 8 33 C7.89042969 32.25234375 7.78085937 31.5046875 7.66796875 30.734375 C7.50941406 29.74953125 7.35085938 28.7646875 7.1875 27.75 C7.03667969 26.77546875 6.88585937 25.8009375 6.73046875 24.796875 C5.95412235 21.82434013 5.10236068 20.21944129 3 18 C0.24921116 17.08307039 -1.35948913 16.89113917 -4.1875 16.9375 C-5.445625 16.958125 -6.70375 16.97875 -8 17 C-8.6814823 18.89179203 -8.6814823 18.89179203 -9 21 C-6.3144406 23.6855594 -3.62378672 24.06049974 0 25 C0 26.65 0 28.3 0 30 C-5.27405053 29.58634898 -8.17729898 28.71026864 -12 25 C-13.44430855 22.11138291 -13.37688506 20.20352299 -13 17 C-10.5625 14.1875 -10.5625 14.1875 -8 12 C-7.67 11.67 -7.34 11.34 -7 11 C-2.0985367 10.5015461 0.04124196 10.42112722 4.3125 13 C7.62688304 16.15182475 8.72239376 19.67033441 10 24 C10 24.66 10 25.32 10 26 C11.051875 26.061875 12.10375 26.12375 13.1875 26.1875 C19.03900495 27.43454204 21.67317192 31.2724022 25 36 C27.0399719 34.63676257 27.0399719 34.63676257 29 33 C29.23471676 30.90568483 29.23471676 30.90568483 27.6015625 29.58984375 C26.62316406 28.77193359 26.62316406 28.77193359 25.625 27.9375 C22.42453655 25.22076214 19.28693937 22.45664781 16.1875 19.625 C11.69921748 15.55423213 7.02738777 11.76851688 2.25 8.04296875 C0.09888173 6.08978324 -0.94319168 4.67204376 -2 2 C-1.34 1.34 -0.68 0.68 0 0 Z " fill="#119D53" transform="translate(390,86)"/>
<path d="M0 0 C7.92 0 15.84 0 24 0 C24 33.66 24 67.32 24 102 C16.08 102 8.16 102 0 102 C0 68.34 0 34.68 0 0 Z " fill="#00A64F" transform="translate(854,363)"/>
<path d="M0 0 C7.59 0 15.18 0 23 0 C24.95365306 1.95365306 24.12022124 4.93399752 24.12442017 7.53401184 C24.12082489 8.47484116 24.11722961 9.41567047 24.11352539 10.38500977 C24.11367142 11.37026642 24.11381744 12.35552307 24.1139679 13.37063599 C24.11326832 16.64424807 24.10547385 19.91780404 24.09765625 23.19140625 C24.09579223 25.45442168 24.09436825 27.71743751 24.09336853 29.98045349 C24.0895421 35.94978948 24.07971075 41.91910132 24.06866455 47.88842773 C24.05845312 53.97444329 24.05387149 60.06046273 24.04882812 66.14648438 C24.03808859 78.0976686 24.02049078 90.04882851 24 102 C16.08 102 8.16 102 0 102 C0 68.34 0 34.68 0 0 Z " fill="#00AA4C" transform="translate(970,363)"/>
<path d="M0 0 C7.59 0 15.18 0 23 0 C23 33.66 23 67.32 23 102 C15.41 102 7.82 102 0 102 C0 68.34 0 34.68 0 0 Z " fill="#00A64F" transform="translate(725,363)"/>
<path d="M0 0 C6.6515625 -0.061875 6.6515625 -0.061875 13.4375 -0.125 C14.81736084 -0.14320801 16.19722168 -0.16141602 17.61889648 -0.18017578 C33.69205736 -0.25221626 33.69205736 -0.25221626 39.9375 4 C42.78270493 8.1384799 43.68738992 12.01427001 44 17 C43.12225503 21.65204834 41.10862851 24.47688769 38 28 C38.62519531 28.62519531 39.25039063 29.25039063 39.89453125 29.89453125 C42.71101375 34.04871231 43.08464943 37.77963064 43.6875 42.6875 C43.9179678 44.40009218 44.1509208 46.11235231 44.38671875 47.82421875 C44.48170654 48.57791748 44.57669434 49.33161621 44.67456055 50.1081543 C44.92009989 52.08112136 44.92009989 52.08112136 46 54 C42.04 54 38.08 54 34 54 C33.89042969 52.89140625 33.78085937 51.7828125 33.66796875 50.640625 C33.50847238 49.17701127 33.34827951 47.71347333 33.1875 46.25 C33.11724609 45.52039063 33.04699219 44.79078125 32.97460938 44.0390625 C32.33649272 38.37613793 32.33649272 38.37613793 29 34 C25.03844029 32.73035827 20.82258187 32.70801937 16.6875 32.4375 C14.480625 32.293125 12.27375 32.14875 10 32 C10 39.26 10 46.52 10 54 C6.7 54 3.4 54 0 54 C0 36.18 0 18.36 0 0 Z M10 9 C10 13.95 10 18.9 10 24 C13.08427046 24.10800947 16.16475747 24.18731002 19.25 24.25 C20.55904297 24.30027344 20.55904297 24.30027344 21.89453125 24.3515625 C27.0635553 24.4775163 27.0635553 24.4775163 31.578125 22.203125 C33.66746523 18.96579564 33.53803486 16.766244 33 13 C31.6526421 10.60669582 31.6526421 10.60669582 29 9 C25.73620476 8.51043071 22.54074802 8.62361972 19.25 8.75 C18.36183594 8.76804687 17.47367187 8.78609375 16.55859375 8.8046875 C14.37193225 8.85171248 12.18582719 8.92345352 10 9 Z " fill="#ED1B23" transform="translate(403,593)"/>
<path d="M0 0 C6.6515625 -0.061875 6.6515625 -0.061875 13.4375 -0.125 C14.81736084 -0.14320801 16.19722168 -0.16141602 17.61889648 -0.18017578 C34.91020925 -0.25767606 34.91020925 -0.25767606 40.5625 4.875 C43.68926926 9.02950958 43.71969979 13.12236842 43.47265625 18.18359375 C42.81472179 22.10401313 41.58660039 24.02149046 39 27 C38.67 27.66 38.34 28.32 38 29 C38.680625 29.5259375 38.680625 29.5259375 39.375 30.0625 C43.15404238 34.5682813 43.44404656 41.24986433 44.125 46.9375 C44.21136719 47.62134766 44.29773437 48.30519531 44.38671875 49.00976562 C44.59602285 50.67257046 44.79871722 52.33620513 45 54 C41.37 54 37.74 54 34 54 C32.67380929 50.02142786 32.67524511 46.18014725 32.4765625 42.0078125 C31.93662564 38.60001431 31.17756222 36.67638705 29 34 C26.72465677 33.10180594 26.72465677 33.10180594 24 33 C22.82824219 32.89558594 21.65648437 32.79117188 20.44921875 32.68359375 C19.20785156 32.60238281 17.96648437 32.52117188 16.6875 32.4375 C14.480625 32.293125 12.27375 32.14875 10 32 C10 39.26 10 46.52 10 54 C6.7 54 3.4 54 0 54 C0 36.18 0 18.36 0 0 Z M10 9 C10 13.95 10 18.9 10 24 C13.08427046 24.10800947 16.16475747 24.18731002 19.25 24.25 C20.55904297 24.30027344 20.55904297 24.30027344 21.89453125 24.3515625 C27.0635553 24.4775163 27.0635553 24.4775163 31.578125 22.203125 C33.66746523 18.96579564 33.53803486 16.766244 33 13 C31.6526421 10.60669582 31.6526421 10.60669582 29 9 C25.73620476 8.51043071 22.54074802 8.62361972 19.25 8.75 C18.36183594 8.76804687 17.47367188 8.78609375 16.55859375 8.8046875 C14.37193225 8.85171248 12.18582719 8.92345352 10 9 Z " fill="#ED1C23" transform="translate(1060,593)"/>
<path d="M0 0 C9.6215625 -0.0309375 9.6215625 -0.0309375 19.4375 -0.0625 C21.46447021 -0.071604 23.49144043 -0.08070801 25.57983398 -0.09008789 C27.1769199 -0.09300703 28.77400655 -0.09555559 30.37109375 -0.09765625 C31.20805786 -0.10277222 32.04502197 -0.10788818 32.90734863 -0.11315918 C34.93858265 -0.11346924 36.96972471 -0.06240188 39 0 C40 1 40 1 40 9 C30.43 9 20.86 9 11 9 C11 13.29 11 17.58 11 22 C19.58 22 28.16 22 37 22 C37 24.97 37 27.94 37 31 C28.42 31 19.84 31 11 31 C11 35.62 11 40.24 11 45 C20.57 45 30.14 45 40 45 C40 47.97 40 50.94 40 54 C26.8 54 13.6 54 0 54 C0 36.18 0 18.36 0 0 Z " fill="#ED1C24" transform="translate(498,593)"/>
<path d="M0 0 C12.87 0 25.74 0 39 0 C39 2.97 39 5.94 39 9 C29.76 9 20.52 9 11 9 C11 13.29 11 17.58 11 22 C19.58 22 28.16 22 37 22 C37 24.97 37 27.94 37 31 C28.42 31 19.84 31 11 31 C11 35.62 11 40.24 11 45 C20.57 45 30.14 45 40 45 C40 47.97 40 50.94 40 54 C26.8 54 13.6 54 0 54 C0 36.18 0 18.36 0 0 Z " fill="#EC1C23" transform="translate(1155,593)"/>
<path d="M0 0 C3.63 0 7.26 0 11 0 C11 6.93 11 13.86 11 21 C18.59 21 26.18 21 34 21 C34 14.07 34 7.14 34 0 C37.3 0 40.6 0 44 0 C44 17.82 44 35.64 44 54 C40.7 54 37.4 54 34 54 C34 46.08 34 38.16 34 30 C26.41 30 18.82 30 11 30 C11 37.92 11 45.84 11 54 C7.37 54 3.74 54 0 54 C0 36.18 0 18.36 0 0 Z " fill="#ED1C24" transform="translate(872,593)"/>
<path d="M0 0 C3.30780348 2.79745666 6.52203797 5.70922705 7.43359375 10.078125 C7.4375 12 7.4375 12 7 15 C3.7 15 0.4 15 -3 15 C-3.66 12.69 -4.32 10.38 -5 8 C-9.33471766 6.77839775 -13.52158299 6.50696326 -18 7 C-20.5189267 8.31763329 -20.5189267 8.31763329 -22 10 C-22.14031566 12.92202417 -22.14031566 12.92202417 -21 16 C-17.24811346 17.91272647 -13.63562076 18.83512909 -9.56640625 19.890625 C2.76751592 23.17967091 2.76751592 23.17967091 7 28 C9.2926391 31.96001299 9.38954791 35.48124428 9 40 C7.00538248 46.19381229 4.45285274 49.17766105 -1.25 52.1875 C-10.12338314 54.80918138 -19.15362575 54.55536097 -27.4375 50.1875 C-31.81533876 46.45032057 -34.08740401 43.97840745 -34.75 38.1875 C-34.8325 36.805625 -34.915 35.42375 -35 34 C-31.7 34 -28.4 34 -25 34 C-24.649375 35.093125 -24.29875 36.18625 -23.9375 37.3125 C-22.55836867 40.47488022 -21.97191291 41.01797574 -18.875 43 C-14.59743226 44.4834969 -10.3391901 44.11843466 -6 43 C-2.8567486 41.32987773 -2.8567486 41.32987773 -2.125 38.625 C-1.75918892 35.97872172 -1.75918892 35.97872172 -3.21362305 33.93359375 C-5.27698587 31.7001875 -6.5431004 31.19929633 -9.45703125 30.4375 C-10.32263672 30.19773437 -11.18824219 29.95796875 -12.08007812 29.7109375 C-12.98177734 29.47632813 -13.88347656 29.24171875 -14.8125 29 C-28.67519144 25.34611174 -28.67519144 25.34611174 -32.3515625 20.0546875 C-34.01864139 14.77225681 -33.74751639 9.61463541 -31.4375 4.625 C-23.61052955 -3.8040451 -10.01308783 -6.19366257 0 0 Z " fill="#ED1B23" transform="translate(749,595)"/>
<path d="M0 0 C12.87 0 25.74 0 39 0 C39 2.97 39 5.94 39 9 C29.43 9 19.86 9 10 9 C10 13.29 10 17.58 10 22 C18.58 22 27.16 22 36 22 C36 24.97 36 27.94 36 31 C27.42 31 18.84 31 10 31 C10 35.62 10 40.24 10 45 C19.57 45 29.14 45 39 45 C39 47.97 39 50.94 39 54 C26.13 54 13.26 54 0 54 C0 36.18 0 18.36 0 0 Z " fill="#ED1C24" transform="translate(970,593)"/>
<path d="M0 0 C3.63 0 7.26 0 11 0 C11.00410889 1.18553467 11.00821777 2.37106934 11.01245117 3.5925293 C11.03425989 8.00052072 11.08856741 12.40762172 11.15258789 16.81518555 C11.17575277 18.72102307 11.19016007 20.62698833 11.19555664 22.53295898 C11.20485741 25.27668723 11.24587071 28.01841063 11.29296875 30.76171875 C11.2890361 31.61086349 11.28510345 32.46000824 11.28105164 33.33488464 C11.38829474 37.70502052 11.59789367 39.48462019 14.37207031 43.0402832 C17.3999687 45.29826725 18.82966474 45.6246009 22.5625 45.5 C23.49191406 45.4896875 24.42132813 45.479375 25.37890625 45.46875 C28.39359614 44.92961023 29.80414882 44.11120385 32 42 C33.30920503 38.0723849 33.23462868 34.27429369 33.31640625 30.17578125 C33.33718735 29.31438034 33.35796844 28.45297943 33.37937927 27.56547546 C33.44474909 24.81456456 33.50370132 22.06355844 33.5625 19.3125 C33.60569717 17.44725579 33.64931185 15.5820212 33.69335938 13.71679688 C33.80041763 9.14462876 33.90172054 4.5723649 34 0 C37.3 0 40.6 0 44 0 C44.07433795 5.87155408 44.12869117 11.74283219 44.16479492 17.61474609 C44.17985098 19.61088841 44.20030027 21.60699781 44.22631836 23.60302734 C44.26284161 26.47762185 44.27975837 29.35177772 44.29296875 32.2265625 C44.30845261 33.11429352 44.32393646 34.00202454 44.33988953 34.91665649 C44.34127194 40.04393496 43.87345265 43.57053368 41 48 C34.46265682 54.25311087 29.49124403 55.36304802 20.60205078 55.29760742 C13.99027362 55.13964411 10.44062086 53.94140296 5.25 49.8125 C0.26954391 43.58692989 -0.43941829 37.36555184 -0.29296875 29.6875 C-0.28872391 28.83317383 -0.28447906 27.97884766 -0.28010559 27.09863281 C-0.26345703 24.39875318 -0.22583223 21.69964989 -0.1875 19 C-0.17243523 17.15756295 -0.15874998 15.31511407 -0.14648438 13.47265625 C-0.11359906 8.98147661 -0.06191456 4.49086944 0 0 Z " fill="#ED1B22" transform="translate(305,593)"/>
<path d="M0 0 C3.3 0 6.6 0 10 0 C10.01981934 1.08418213 10.03963867 2.16836426 10.06005859 3.28540039 C10.13648765 7.33168634 10.2251458 11.37763007 10.31738281 15.42358398 C10.35551913 17.17025973 10.39039802 18.91700991 10.421875 20.66381836 C10.46786087 23.18370046 10.52579747 25.7030769 10.5859375 28.22265625 C10.59748871 28.99585709 10.60903992 29.76905792 10.62094116 30.56568909 C10.74967749 35.36172102 11.2660476 39.50112603 13 44 C16.06957098 45.02319033 18.22440323 45.13371939 21.4375 45.125 C22.38496094 45.12757813 23.33242187 45.13015625 24.30859375 45.1328125 C26.70140459 45.01473475 28.71336153 44.68112635 31 44 C32.77236458 38.63004625 33.3298611 33.85882792 33.4140625 28.22265625 C33.43342865 27.41130722 33.4527948 26.59995819 33.4727478 25.76402283 C33.53206966 23.19695228 33.57873736 20.62983571 33.625 18.0625 C33.66322352 16.31183044 33.70227774 14.56117881 33.7421875 12.81054688 C33.83773156 8.54051184 33.92193537 4.2703889 34 0 C37.3 0 40.6 0 44 0 C44.07453648 5.55010083 44.12878399 11.09990586 44.16479492 16.65039062 C44.17981793 18.53585897 44.20024231 20.42129275 44.22631836 22.30664062 C44.26298863 25.0274309 44.27979146 27.74775641 44.29296875 30.46875 C44.30845261 31.30241089 44.32393646 32.13607178 44.33988953 32.99499512 C44.34167066 39.28515512 43.55569843 45.28457041 39.0625 50.05859375 C38.0415625 50.74115234 38.0415625 50.74115234 37 51.4375 C36.319375 51.91058594 35.63875 52.38367188 34.9375 52.87109375 C28.84210791 56.42264277 20.82280365 55.48303035 14 55 C8.63543689 53.56737357 4.97829036 50.6965348 2 46 C-0.49510763 41.26086123 -0.25716276 36.76189344 -0.1953125 31.54296875 C-0.1924826 30.64000565 -0.18965271 29.73704254 -0.18673706 28.80671692 C-0.17557607 25.93350766 -0.15047897 23.06061445 -0.125 20.1875 C-0.11496493 18.23503056 -0.10584 16.28255621 -0.09765625 14.33007812 C-0.07565008 9.55326434 -0.04114831 4.77668569 0 0 Z " fill="#ED1B23" transform="translate(121,593)"/>
<path d="M0 0 C12.21 0 24.42 0 37 0 C37 2.97 37 5.94 37 9 C28.09 9 19.18 9 10 9 C10 13.29 10 17.58 10 22 C17.92 22 25.84 22 34 22 C34 24.97 34 27.94 34 31 C26.08 31 18.16 31 10 31 C10 38.59 10 46.18 10 54 C6.7 54 3.4 54 0 54 C0 36.18 0 18.36 0 0 Z " fill="#ED1C24" transform="translate(34,593)"/>
<path d="M0 0 C7.77311918 0.51820795 14.58471958 2.55340329 21.9375 5.0625 C23.11868408 5.46009521 24.29986816 5.85769043 25.5168457 6.26733398 C35.28547178 9.61913779 44.69304148 13.5350931 54 18 C53.34 19.65 52.68 21.3 52 23 C50.35 22.67 48.7 22.34 47 22 C46.7525 22.80824219 46.505 23.61648437 46.25 24.44921875 C44.75146206 28.70600308 42.92002606 32.73244462 41 36.8125 C40.64421875 37.58787109 40.2884375 38.36324219 39.921875 39.16210938 C39.57640625 39.89880859 39.2309375 40.63550781 38.875 41.39453125 C38.56304687 42.06331299 38.25109375 42.73209473 37.9296875 43.42114258 C37 45 37 45 35 46 C32.875 45.0625 32.875 45.0625 31 44 C32.74363363 39.2169176 35.14938758 34.84287955 37.5625 30.375 C38.3784474 28.86313502 39.19233749 27.35015744 40.00390625 25.8359375 C40.36299072 25.17126465 40.7220752 24.5065918 41.09204102 23.82177734 C42.12781491 21.85013332 42.12781491 21.85013332 43 19 C42.2575 18.87625 41.515 18.7525 40.75 18.625 C38.19858515 18.04513299 36.2732427 17.26291261 34 16 C33.75121094 16.80824219 33.50242187 17.61648437 33.24609375 18.44921875 C31.75535913 22.69711144 29.95806021 26.73269793 28.0625 30.8125 C27.71509766 31.58787109 27.36769531 32.36324219 27.00976562 33.16210938 C26.66751953 33.89880859 26.32527344 34.63550781 25.97265625 35.39453125 C25.66593994 36.06331299 25.35922363 36.73209473 25.04321289 37.42114258 C24 39 24 39 21 40 C20.67128906 39.20335937 20.34257812 38.40671875 20.00390625 37.5859375 C15.72254748 28.0486017 11.07118882 23.85912009 1.4375 20.125 C0.303125 19.75375 -0.83125 19.3825 -2 19 C-2 17.02 -2 15.04 -2 13 C4.94545707 12.79770513 11.62076335 13.58660853 18.5 14.5 C19.60859375 14.64308594 20.7171875 14.78617188 21.859375 14.93359375 C24.57353546 15.28456278 27.28700665 15.64013917 30 16 C30 15.01 30 14.02 30 13 C29.03191406 12.8865625 28.06382812 12.773125 27.06640625 12.65625 C22.56958165 12.01368488 18.29103889 10.77084121 13.9375 9.5 C8.97341898 8.05815074 4.13264784 6.72267682 -1 6 C-0.67 4.02 -0.34 2.04 0 0 Z " fill="#0F9C52" transform="translate(307,48)"/>
<path d="M0 0 C14.19 0 28.38 0 43 0 C43 2.97 43 5.94 43 9 C37.39 9 31.78 9 26 9 C26 23.85 26 38.7 26 54 C22.7 54 19.4 54 16 54 C16 39.15 16 24.3 16 9 C10.72 9 5.44 9 0 9 C0 6.03 0 3.06 0 0 Z " fill="#EC1C23" transform="translate(214,593)"/>
<path d="M0 0 C2.97 0.495 2.97 0.495 6 1 C5.67 2.65 5.34 4.3 5 6 C5.54414551 6.11069824 6.08829102 6.22139648 6.64892578 6.33544922 C9.14174567 6.84482619 11.6333635 7.35986694 14.125 7.875 C14.9809375 8.04902344 15.836875 8.22304687 16.71875 8.40234375 C21.26284268 9.34611684 25.62747027 10.4086859 30 12 C29.67 13.98 29.34 15.96 29 18 C24.43428115 18.30438126 20.84459458 17.78239228 16.4375 16.5 C10.80131242 14.79244722 10.80131242 14.79244722 5 15 C0.72973713 19.38567538 -0.12622843 22.13452783 -0.0625 28.125 C-0.04896484 29.76855469 -0.04896484 29.76855469 -0.03515625 31.4453125 C-0.02355469 32.28835937 -0.01195312 33.13140625 0 34 C0.66 34.33 1.32 34.66 2 35 C2.25394531 34.31292969 2.50789063 33.62585938 2.76953125 32.91796875 C3.28580078 31.56638672 3.28580078 31.56638672 3.8125 30.1875 C4.14894531 29.29417969 4.48539063 28.40085938 4.83203125 27.48046875 C5.97534232 25.05236665 6.89044833 23.63653364 9 22 C11.4375 22 11.4375 22 14 23 C17.58785206 26.79287218 19.92278216 29.99233628 20.125 35.25 C20.08375 36.1575 20.0425 37.065 20 38 C18.68 38.66 17.36 39.32 16 40 C15.76925781 39.30132812 15.53851563 38.60265625 15.30078125 37.8828125 C14.97464844 36.97273438 14.64851563 36.06265625 14.3125 35.125 C13.99925781 34.22007812 13.68601562 33.31515625 13.36328125 32.3828125 C11.66303207 29.41103027 10.22446551 28.93044278 7 28 C6.97494385 28.56509277 6.9498877 29.13018555 6.92407227 29.71240234 C6.80820044 32.26683742 6.68543463 34.8208955 6.5625 37.375 C6.52318359 38.26445312 6.48386719 39.15390625 6.44335938 40.0703125 C6.40146484 40.92109375 6.35957031 41.771875 6.31640625 42.6484375 C6.26141968 43.82672119 6.26141968 43.82672119 6.20532227 45.02880859 C6 47 6 47 5 49 C0.63645401 48.27274233 -0.98175488 46.23000847 -3.671875 42.89453125 C-6.94435822 38.22643018 -7.56813301 33.58664122 -7 28 C-5.04441644 22.32477554 -2.06209491 17.13994503 1 12 C-0.32 11.67 -1.64 11.34 -3 11 C-2.01 7.37 -1.02 3.74 0 0 Z " fill="#0F9C52" transform="translate(46,199)"/>
<path d="M0 0 C1.65 0.66 3.3 1.32 5 2 C4.67 3.98 4.34 5.96 4 8 C11.26 12.29 18.52 16.58 26 21 C25.34 22.65 24.68 24.3 24 26 C18.43749244 25.28423616 14.5671305 22.38643882 9.9375 19.3984375 C7.13142859 17.76768505 7.13142859 17.76768505 4.28515625 18.1875 C-0.54588637 19.90520404 -3.85947902 23.23652149 -6.28125 27.73828125 C-8.30934791 34.1201763 -7.47175774 41.56255559 -6 48 C-3.52733235 47.65555119 -3.52733235 47.65555119 -1 47 C0.4807848 44.0384304 0.35314037 41.16493705 0.5625 37.875 C0.64628906 36.59367187 0.73007813 35.31234375 0.81640625 33.9921875 C0.87699219 33.00476563 0.93757813 32.01734375 1 31 C2.98 31 4.96 31 7 31 C7.50433761 37.8365765 7.15898521 43.32486299 3 49 C0 51 0 51 -3.3125 51.0625 C-8.82622415 49.47379982 -11.36715644 45.8686601 -14.140625 40.99609375 C-15.97556564 36.73402709 -15.59913984 32.78069933 -14.16015625 28.50390625 C-11.30369574 22.18506936 -7.51528379 18.13304145 -2 14 C-2.99 13.01 -3.98 12.02 -5 11 C-3.77472971 6.94718288 -2.30119506 3.55639236 0 0 Z " fill="#109D53" transform="translate(68,149)"/>
<path d="M0 0 C3.3 0 6.6 0 10 0 C10 17.82 10 35.64 10 54 C6.7 54 3.4 54 0 54 C0 36.18 0 18.36 0 0 Z " fill="#EC1C23" transform="translate(653,593)"/>
<path d="M0 0 C0.33 0 0.66 0 1 0 C1.66 4.29 2.32 8.58 3 13 C5.47395833 12.93489583 7.94791667 12.86979167 10.421875 12.8046875 C13.1135858 13.00860498 14.69904974 13.63448279 17 15 C15.54462432 15.83848804 14.08559627 16.67063934 12.625 17.5 C11.81289062 17.9640625 11.00078125 18.428125 10.1640625 18.90625 C8 20 8 20 6 20 C6.144375 20.59167969 6.28875 21.18335938 6.4375 21.79296875 C6.623125 22.58316406 6.80875 23.37335938 7 24.1875 C7.185625 24.96480469 7.37125 25.74210937 7.5625 26.54296875 C8.01422743 29.07990225 8.07307143 31.42879903 8 34 C7.45730469 33.57847656 6.91460937 33.15695312 6.35546875 32.72265625 C5.64003906 32.17480469 4.92460938 31.62695312 4.1875 31.0625 C3.47980469 30.51722656 2.77210937 29.97195313 2.04296875 29.41015625 C-0.04125052 27.83143752 -0.04125052 27.83143752 -3 27 C-5.79604382 28.20439911 -5.79604382 28.20439911 -8.6875 29.9375 C-9.68136719 30.50339844 -10.67523438 31.06929688 -11.69921875 31.65234375 C-12.45847656 32.09707031 -13.21773438 32.54179687 -14 33 C-12.58192622 28.52761347 -10.88695626 24.28853694 -9 20 C-9.6496875 19.43410156 -10.299375 18.86820312 -10.96875 18.28515625 C-11.8040625 17.55167969 -12.639375 16.81820313 -13.5 16.0625 C-14.3353125 15.33160156 -15.170625 14.60070312 -16.03125 13.84765625 C-17.00578125 12.93306641 -17.00578125 12.93306641 -18 12 C-18 11.67 -18 11.34 -18 11 C-13.1666528 10.91666643 -8.76307437 11.04738513 -4 12 C-3.896875 11.13375 -3.79375 10.2675 -3.6875 9.375 C-2.96601586 5.83316877 -1.72876739 3.15687958 0 0 Z " fill="#ED2E32" transform="translate(89,369)"/>
<path d="M0 0 C2.68092691 2.68092691 2.38670257 4.39167363 2.625 8.125 C2.69976562 9.22070312 2.77453125 10.31640625 2.8515625 11.4453125 C2.92503906 12.70988281 2.92503906 12.70988281 3 14 C4.794375 13.9690625 4.794375 13.9690625 6.625 13.9375 C10.18004869 13.93117429 13.50555624 14.30111125 17 15 C13.59780735 17.74792483 9.51535412 21 5 21 C5.34224609 22.01320313 5.34224609 22.01320313 5.69140625 23.046875 C5.97886719 23.93890625 6.26632813 24.8309375 6.5625 25.75 C6.85253906 26.63171875 7.14257812 27.5134375 7.44140625 28.421875 C8.01697435 31.07834316 7.89248371 32.47031106 7 35 C6.48050781 34.48308594 5.96101563 33.96617187 5.42578125 33.43359375 C4.72839844 32.77488281 4.03101562 32.11617188 3.3125 31.4375 C2.62800781 30.77621094 1.94351563 30.11492187 1.23828125 29.43359375 C-0.90941181 27.74720035 -0.90941181 27.74720035 -3.5 28.15625 C-5.90222445 28.96700075 -8.06954365 29.88399751 -10.3125 31.0625 C-11.00988281 31.42472656 -11.70726562 31.78695313 -12.42578125 32.16015625 C-12.94527344 32.43730469 -13.46476562 32.71445312 -14 33 C-12.46527032 28.27775484 -10.76054874 23.64144669 -9 19 C-9.5775 18.773125 -10.155 18.54625 -10.75 18.3125 C-13 17 -13 17 -17 12 C-12.71 12 -8.42 12 -4 12 C-3.525625 10.576875 -3.05125 9.15375 -2.5625 7.6875 C-1.70833333 5.125 -0.85416667 2.5625 0 0 Z " fill="#EC2D32" transform="translate(58,304)"/>
<path d="M0 0 C3.77324749 1.88662375 4.58234319 7.26683706 6 11 C10.62 11 15.24 11 20 11 C16.66666667 14.33333333 13.33333333 17.66666667 10 21 C10.37253906 21.69867188 10.74507813 22.39734375 11.12890625 23.1171875 C11.60199219 24.02726562 12.07507813 24.93734375 12.5625 25.875 C13.03816406 26.77992188 13.51382812 27.68484375 14.00390625 28.6171875 C14.33261719 29.40351563 14.66132813 30.18984375 15 31 C14.67 31.66 14.34 32.32 14 33 C13.39671875 32.55527344 12.7934375 32.11054688 12.171875 31.65234375 C11.37265625 31.08644531 10.5734375 30.52054687 9.75 29.9375 C8.96109375 29.36902344 8.1721875 28.80054688 7.359375 28.21484375 C5.13990487 26.81756235 5.13990487 26.81756235 2.96875 27.125 C0.61607599 28.1706329 -1.22378823 29.47530078 -3.25 31.0625 C-3.95640625 31.61035156 -4.6628125 32.15820312 -5.390625 32.72265625 C-6.18726563 33.35494141 -6.18726563 33.35494141 -7 34 C-6.33333333 29.33333333 -5.66666667 24.66666667 -5 20 C-5.886875 19.7525 -6.77375 19.505 -7.6875 19.25 C-11 18 -11 18 -16 14 C-11.38 13.67 -6.76 13.34 -2 13 C-1.855625 11.783125 -1.71125 10.56625 -1.5625 9.3125 C-1.17219047 6.17329623 -0.67648144 3.0924866 0 0 Z " fill="#EC2B30" transform="translate(426,369)"/>
<path d="M0 0 C3.30413275 3.30413275 4.33559174 7.67253853 6 12 C10.62 11.67 15.24 11.34 20 11 C15 16 15 16 12.625 18 C10.73900554 19.87797662 10.73900554 19.87797662 11.0625 22.375 C11.98955897 25.14768002 11.98955897 25.14768002 13.625 28.1875 C14.07875 29.115625 14.5325 30.04375 15 31 C14.67 31.66 14.34 32.32 14 33 C10.37 31.02 6.74 29.04 3 27 C0.03 29.64 -2.94 32.28 -6 35 C-7.49341969 32.01316063 -6.40648676 30.04839022 -5.5625 26.875 C-5.13130859 25.23144531 -5.13130859 25.23144531 -4.69140625 23.5546875 C-4.46324219 22.71164062 -4.23507812 21.86859375 -4 21 C-4.886875 20.731875 -5.77375 20.46375 -6.6875 20.1875 C-9.77796215 19.07959847 -12.28790452 17.83465282 -15 16 C-15 15.67 -15 15.34 -15 15 C-8.565 14.505 -8.565 14.505 -2 14 C-1.855625 12.4325 -1.71125 10.865 -1.5625 9.25 C-1.26941369 6.06792001 -0.85659135 3.08084955 0 0 Z " fill="#EC2C30" transform="translate(457,304)"/>
<path d="M0 0 C2.93423195 1.79646854 4.47205355 2.9441071 6 6 C6.75669479 12.26975683 5.71646506 15.25868446 1.8984375 20.23828125 C-3.82964399 25.55384659 -9.77925276 25.58166464 -17.234375 25.40625 C-24.98632146 24.56994042 -29.99517396 21.44067144 -35.125 15.6875 C-36.10029704 14.47174955 -37.06533151 13.2472563 -38 12 C-37.01 11.67 -36.02 11.34 -35 11 C-32.44140625 12.3984375 -32.44140625 12.3984375 -29.5625 14.375 C-23.06833492 18.81047057 -17.84029319 19.88052524 -10 19 C-5.77604186 17.4847139 -2.04150924 15.08301849 0 11 C0.33397787 7.87413125 0.33397787 7.87413125 0 5 C-1.09354906 3.70475652 -1.09354906 3.70475652 -3.75 3.625 C-8.03070839 4.11892789 -9.20841745 5.83117656 -12 9 C-12.99 9.66 -13.98 10.32 -15 11 C-16.32 10.01 -17.64 9.02 -19 8 C-17.80565424 4.28425762 -15.53532769 2.55941962 -12.1328125 0.765625 C-8.11441169 -0.67687786 -4.18321621 -0.7219764 0 0 Z " fill="#129E54" transform="translate(222,55)"/>
<path d="M0 0 C3.0413374 1.63764322 5.28615407 3.09993339 7.4375 5.8125 C8.30089787 9.1701584 7.83509639 11.65961443 7 15 C4.84327614 17.79723582 3.6575983 18.86884215 0.16015625 19.56640625 C-8.09650924 19.55599431 -8.09650924 19.55599431 -12.25 17 C-14.47791452 13.18071797 -15.10754558 10.3168115 -14 6 C-9.98356523 0.89804232 -6.43305898 -0.63069206 0 0 Z " fill="#179F57" transform="translate(375,71)"/>
<path d="M0 0 C3.80428627 0.07499489 6.20507337 0.97382258 9.05859375 3.6640625 C11.40533879 6.86616321 12.36557799 10.56239296 13.3125 14.375 C12.3225 14.375 11.3325 14.375 10.3125 14.375 C9.9 13.42625 9.4875 12.4775 9.0625 11.5 C7.59800642 8.43553129 7.59800642 8.43553129 5.625 7 C2.14425913 6.05925922 -1.08765019 6.25500501 -4.6875 6.375 C-5.3689823 8.26679203 -5.3689823 8.26679203 -5.6875 10.375 C-3.0019406 13.0605594 -0.31128672 13.43549974 3.3125 14.375 C3.3125 16.025 3.3125 17.675 3.3125 19.375 C-1.96155053 18.96134898 -4.86479898 18.08526864 -8.6875 14.375 C-10.13180855 11.48638291 -10.06438506 9.57852299 -9.6875 6.375 C-7.25 3.5625 -7.25 3.5625 -4.6875 1.375 C-3.6875 0.375 -3.6875 0.375 0 0 Z " fill="#159F56" transform="translate(386.6875,96.625)"/>
<path d="M0 0 C7.26 0 14.52 0 22 0 C22 2.31 22 4.62 22 7 C20.27185839 7.19672365 18.54240803 7.38196799 16.8125 7.5625 C15.84957031 7.66691406 14.88664062 7.77132812 13.89453125 7.87890625 C11 8 11 8 8.34375 7.375 C6.00748624 6.75433223 6.00748624 6.75433223 4.19921875 7.99609375 C3.45091797 8.70958984 3.45091797 8.70958984 2.6875 9.4375 C1.800625 10.283125 0.91375 11.12875 0 12 C-1.32 11.34 -2.64 10.68 -4 10 C-4 9.01 -4 8.02 -4 7 C-1.76671858 5.00180084 0.31654249 3.34172876 3 2 C2.01 1.34 1.02 0.68 0 0 Z " fill="#EEF8F2" transform="translate(241,48)"/>
<path d="M0 0 C0 0.99 0 1.98 0 3 C-0.66 3 -1.32 3 -2 3 C-2.17015625 3.61746094 -2.3403125 4.23492187 -2.515625 4.87109375 C-7.19645516 21.22910127 -7.19645516 21.22910127 -12 25 C-17.42335303 25.52484062 -20.51521011 25.36359242 -25 22 C-24.505 20.515 -24.505 20.515 -24 19 C-22.515 19.99 -22.515 19.99 -21 21 C-17.97356417 21.39973055 -17.97356417 21.39973055 -15 20 C-12.40988284 16.06872185 -11.17800649 11.72389308 -10.0625 7.1875 C-8.25898482 1.77695447 -5.62194296 0 0 0 Z " fill="#119D53" transform="translate(116,129)"/>
<path d="M0 0 C3.4375 1.5 3.4375 1.5 6 3 C5.75 5.375 5.75 5.375 5 8 C0.91887899 10.64550543 -3.29141899 10.59613227 -8 10 C-10.5625 8.5 -10.5625 8.5 -12 7 C-11.64393309 4.41851492 -11.16671807 3.17954253 -9.375 1.25 C-6.03827212 -0.50617257 -3.72988988 -0.38585068 0 0 Z " fill="#F1F9F5" transform="translate(375,76)"/>
<path d="M0 0 C0.8971875 0.309375 0.8971875 0.309375 1.8125 0.625 C1.5959375 1.44291016 1.5959375 1.44291016 1.375 2.27734375 C-0.39552835 9.47011517 -1.06021332 16.36823587 0.8125 23.625 C-0.1775 23.955 -1.1675 24.285 -2.1875 24.625 C-5.35078691 19.67376831 -6.32697811 16.22533669 -6.25 10.375 C-6.24097656 9.48296875 -6.23195312 8.5909375 -6.22265625 7.671875 C-6.21105469 6.99640625 -6.19945312 6.3209375 -6.1875 5.625 C-7.5075 5.295 -8.8275 4.965 -10.1875 4.625 C-9.424375 4.17125 -8.66125 3.7175 -7.875 3.25 C-1.94777397 -0.33390411 -1.94777397 -0.33390411 0 0 Z " fill="#119D53" transform="translate(165.1875,77.375)"/>
<path d="M0 0 C1.07378906 0.54269531 2.14757812 1.08539063 3.25390625 1.64453125 C4.69004949 2.36729615 6.1262505 3.08994628 7.5625 3.8125 C8.26697266 4.16892578 8.97144531 4.52535156 9.69726562 4.89257812 C14.07378925 7.09092409 18.47874598 9.11663926 23 11 C21.125 16.75 21.125 16.75 20 19 C16.24623848 17.74874616 15.75926711 16.4347596 14 13 C14 12.34 14 11.68 14 11 C9.29026351 9.23384882 4.96916636 8.51405169 0 8 C0 5.36 0 2.72 0 0 Z " fill="#F1F9F5" transform="translate(155,428)"/>
<path d="M0 0 C-0.56820748 5.45479185 -1.94637945 9.91059256 -4 15 C-5.11375 14.835 -6.2275 14.67 -7.375 14.5 C-10.72032033 13.9544542 -10.72032033 13.9544542 -13 14 C-12.63074596 7.84576594 -11.17122773 5.27296499 -7 1 C-4.53721199 -0.231394 -2.7204945 -0.07159196 0 0 Z " fill="#F5FAF7" transform="translate(101,119)"/>
<path d="M0 0 C1.98 0 3.96 0 6 0 C6.50433761 6.8365765 6.15898521 12.32486299 2 18 C-1.22791555 20.1519437 -2.28400809 20.20086443 -6 20 C-6 19.01 -6 18.02 -6 17 C-5.360625 16.87625 -4.72125 16.7525 -4.0625 16.625 C-3.381875 16.41875 -2.70125 16.2125 -2 16 C-0.5192152 13.0384304 -0.64685963 10.16493705 -0.4375 6.875 C-0.35371094 5.59367188 -0.26992187 4.31234375 -0.18359375 2.9921875 C-0.09271484 1.51105469 -0.09271484 1.51105469 0 0 Z " fill="#1DA25C" transform="translate(69,180)"/>
<path d="M0 0 C0 3.96 0 7.92 0 12 C-4.24233998 10.30306401 -7.29769627 8.57551564 -11 6 C-11.99 5.34 -12.98 4.68 -14 4 C-12.42032193 3.32471777 -10.83608097 2.66010306 -9.25 2 C-8.36828125 1.62875 -7.4865625 1.2575 -6.578125 0.875 C-4 0 -4 0 0 0 Z " fill="#E5F4EC" transform="translate(278,464)"/>
<path d="M0 0 C0.66 0 1.32 0 2 0 C3.73082971 2.02771302 5.34408286 4.05604591 6.9375 6.1875 C7.38029297 6.76564453 7.82308594 7.34378906 8.27929688 7.93945312 C15.47717728 17.43293175 15.47717728 17.43293175 15 23 C12.79516488 20.90508334 11.05092847 18.7405852 9.3125 16.25 C6.07082417 11.84066764 2.23264962 8.43768497 -2 5 C-1.34 3.35 -0.68 1.7 0 0 Z " fill="#169F57" transform="translate(356,89)"/>
<path d="M0 0 C0.99 0 1.98 0 3 0 C3.165 0.763125 3.33 1.52625 3.5 2.3125 C5.69479908 6.24484835 8.8222367 6.80496538 13 8 C13 9.65 13 11.3 13 13 C7.72594947 12.58634898 4.82270102 11.71026864 1 8 C-0.35439668 5.29120665 -0.06501451 2.99066732 0 0 Z " fill="#1DA25C" transform="translate(377,103)"/>
<path d="M0 0 C0.66 0 1.32 0 2 0 C3.65 2.97 5.3 5.94 7 9 C2.05 9 -2.9 9 -8 9 C-2.25 2.25 -2.25 2.25 0 0 Z " fill="#EAF6EF" transform="translate(358,438)"/>
<path d="M0 0 C2.9375 2.5 2.9375 2.5 5 5 C3.453125 4.5978125 3.453125 4.5978125 1.875 4.1875 C-2.18449759 3.9910727 -2.57538732 4.00572884 -5.4375 6.4375 C-6.283125 7.283125 -7.12875 8.12875 -8 9 C-9.32 8.34 -10.64 7.68 -12 7 C-12 4 -12 4 -9.9375 1.8125 C-6.22994331 -0.47514136 -4.28868719 -0.6892533 0 0 Z " fill="#119D53" transform="translate(249,51)"/>
<path d="M0 0 C4.29 0 8.58 0 13 0 C12.67 3.3 12.34 6.6 12 10 C10.33984375 8.56770833 8.6796875 7.13541667 7.01953125 5.703125 C4.71488894 3.75955818 2.35413857 1.88331086 0 0 Z " fill="#F6FBF8" transform="translate(211,463)"/>
<path d="M0 0 C4.29 0 8.58 0 13 0 C11.68 2.64 10.36 5.28 9 8 C4.46213776 5.73106888 3.05321843 3.90133466 0 0 Z " fill="#E7F5ED" transform="translate(321,68)"/>
<path d="M0 0 C0.66 0 1.32 0 2 0 C4.2240673 4.3173071 4.35763349 7.33313486 3 12 C-0.0625 14.4375 -0.0625 14.4375 -3 16 C-2.125 11.25 -2.125 11.25 -1 9 C-0.77532169 7.46331135 -0.59203195 5.92031946 -0.4375 4.375 C-0.35371094 3.55773437 -0.26992188 2.74046875 -0.18359375 1.8984375 C-0.12300781 1.27195312 -0.06242187 0.64546875 0 0 Z " fill="#FADE23" transform="translate(281,325)"/>
<path d="M0 0 C3.91211733 1.15585285 6.8745041 2.35534962 10 5 C9.67 6.32 9.34 7.64 9 9 C5.66666667 7.33333333 2.33333333 5.66666667 -1 4 C-0.67 2.68 -0.34 1.36 0 0 Z " fill="#1BA15A" transform="translate(200,471)"/>
<path d="M0 0 C0 1.32 0 2.64 0 4 C-3.3 4.66 -6.6 5.32 -10 6 C-10 4.68 -10 3.36 -10 2 C-6.5980513 -0.09350689 -3.94727588 -0.17942163 0 0 Z " fill="#19A059" transform="translate(360,455)"/>
<path d="M0 0 C0.66 0 1.32 0 2 0 C2.28875 0.763125 2.5775 1.52625 2.875 2.3125 C3.96269013 5.15029308 3.96269013 5.15029308 6 8 C5.34 8.66 4.68 9.32 4 10 C3.67 9.34 3.34 8.68 3 8 C-0.02934491 7.34227572 -0.02934491 7.34227572 -3 7 C-2.38722388 4.03824877 -1.74627478 2.61941217 0 0 Z " fill="#FADB23" transform="translate(186,143)"/>
<path d="M0 0 C4.875 1.75 4.875 1.75 6 4 C6.039992 5.99960012 6.04346799 8.00047242 6 10 C5.01 10.495 5.01 10.495 4 11 C2 8 2 8 1.5 5.4375 C1.19851753 2.83145436 1.19851753 2.83145436 -1 1 C-0.67 0.67 -0.34 0.34 0 0 Z " fill="#ED3826" transform="translate(263,314)"/>
<path d="M0 0 C2.97 0.495 2.97 0.495 6 1 C6 2.98 6 4.96 6 7 C4.35 7.33 2.7 7.66 1 8 C1 7.01 1 6.02 1 5 C1.66 5 2.32 5 3 5 C2.01 4.34 1.02 3.68 0 3 C0 2.01 0 1.02 0 0 Z " fill="#F9C823" transform="translate(207,153)"/>
<path d="M0 0 C0.66 0 1.32 0 2 0 C4.29013653 3.4352048 4.17842973 4.985331 4 9 C3.01 9 2.02 9 1 9 C1 7.68 1 6.36 1 5 C0.34 5 -0.32 5 -1 5 C-0.67 3.35 -0.34 1.7 0 0 Z " fill="#F9D023" transform="translate(296,321)"/>
<path d="M0 0 C0.33 0.66 0.66 1.32 1 2 C1.66 2 2.32 2 3 2 C3.625 4.8125 3.625 4.8125 4 8 C3.01 9.485 3.01 9.485 2 11 C1.34 11 0.68 11 0 11 C0.020625 10.236875 0.04125 9.47375 0.0625 8.6875 C0.12942841 5.89814214 0.12942841 5.89814214 -1 3 C-0.67 2.01 -0.34 1.02 0 0 Z " fill="#F8BE23" transform="translate(242,334)"/>
<path d="M0 0 C0.66 0 1.32 0 2 0 C2.185625 0.9590625 2.185625 0.9590625 2.375 1.9375 C2.684375 2.9584375 2.684375 2.9584375 3 4 C3.66 4.33 4.32 4.66 5 5 C4.67 6.65 4.34 8.3 4 10 C3.67 9.34 3.34 8.68 3 8 C2.01 8 1.02 8 0 8 C-1.125 2.25 -1.125 2.25 0 0 Z " fill="#F05825" transform="translate(220,331)"/>
<path d="M0 0 C0.33 0 0.66 0 1 0 C1.33 3.3 1.66 6.6 2 10 C1.01 10.495 1.01 10.495 0 11 C-0.38909985 9.54536519 -0.76088029 8.08608793 -1.125 6.625 C-1.33382812 5.81289063 -1.54265625 5.00078125 -1.7578125 4.1640625 C-1.83773437 3.44992187 -1.91765625 2.73578125 -2 2 C-1.34 1.34 -0.68 0.68 0 0 Z " fill="#FAD923" transform="translate(205,335)"/>
<path d="M0 0 C-0.33 0.99 -0.66 1.98 -1 3 C-3.64 3 -6.28 3 -9 3 C-9 2.34 -9 1.68 -9 1 C-5.92677456 0.08941469 -3.19902639 -0.08886184 0 0 Z " fill="#DCF0E6" transform="translate(293,454)"/>
<path d="M0 0 C0.33 0.66 0.66 1.32 1 2 C-3.455 2.495 -3.455 2.495 -8 3 C-8 2.01 -8 1.02 -8 0 C-4.71303767 -0.79953138 -3.28976808 -1.09658936 0 0 Z " fill="#D1ECDE" transform="translate(219,53)"/>
<path d="M0 0 C0.66 0 1.32 0 2 0 C2 1.98 2 3.96 2 6 C-0.475 5.01 -0.475 5.01 -3 4 C-3 3.34 -3 2.68 -3 2 C-2.01 2 -1.02 2 0 2 C0 1.34 0 0.68 0 0 Z " fill="#F16025" transform="translate(236,333)"/>
<path d="M0 0 C0.144375 0.61875 0.28875 1.2375 0.4375 1.875 C0.93152225 4.03258322 0.93152225 4.03258322 2 6 C1.01 7.485 1.01 7.485 0 9 C0 8.34 0 7.68 0 7 C-0.66 6.67 -1.32 6.34 -2 6 C-1.125 1.125 -1.125 1.125 0 0 Z " fill="#EE4226" transform="translate(241,335)"/>
</svg>
